<?xml version="1.0" encoding="UTF-8" standalone="no"?>
<!DOCTYPE svg PUBLIC "-//W3C//DTD SVG 1.1//EN" "http://www.w3.org/Graphics/SVG/1.1/DTD/svg11.dtd">
<svg width="83px" height="83px" viewBox="0 0 80 79" version="1.1" xmlns="http://www.w3.org/2000/svg" xmlns:xlink="http://www.w3.org/1999/xlink" xml:space="preserve" xmlns:serif="http://www.serif.com/" style="fill-rule:evenodd;clip-rule:evenodd;stroke-linejoin:round;stroke-miterlimit:2;">
    <g id="Welcome">
        <g id="Desktop-HD-Copy">
            <g id="Group-24">
                <path id="Path-4" d="M0,0L80.688,81.362L80.688,0L0,0Z" style="fill:rgb(0,103,109);"/>
                <g id="Fill-51" transform="matrix(0.707107,0.707107,-0.707107,0.707107,33.5494,-35.2204)">
                    <path d="M59.288,7C50.294,7 43,14.293 43,23.29C43,30.487 47.667,36.592 54.14,38.746C54.955,38.896 55.252,38.393 55.252,37.961C55.252,37.574 55.238,36.55 55.23,35.191C50.699,36.175 49.743,33.007 49.743,33.007C49.002,31.125 47.934,30.624 47.934,30.624C46.455,29.614 48.046,29.634 48.046,29.634C49.681,29.749 50.541,31.313 50.541,31.313C51.994,33.802 54.354,33.083 55.282,32.666C55.43,31.614 55.851,30.896 56.316,30.489C52.699,30.078 48.896,28.68 48.896,22.438C48.896,20.66 49.531,19.205 50.573,18.067C50.405,17.655 49.846,15.998 50.733,13.756C50.733,13.756 52.1,13.318 55.212,15.426C56.511,15.064 57.905,14.884 59.29,14.877C60.674,14.884 62.067,15.064 63.368,15.426C66.478,13.318 67.843,13.756 67.843,13.756C68.732,15.998 68.173,17.655 68.006,18.067C69.05,19.205 69.68,20.66 69.68,22.438C69.68,28.696 65.871,30.073 62.243,30.476C62.827,30.979 63.348,31.973 63.348,33.492C63.348,35.67 63.328,37.427 63.328,37.961C63.328,38.397 63.622,38.904 64.448,38.745C70.916,36.586 75.579,30.485 75.579,23.29C75.579,14.293 68.285,7 59.288,7" style="fill:rgb(255,255,254);"/>
                </g>
            </g>
        </g>
    </g>
</svg>
