<?xml version="1.0" encoding="UTF-8"?>
<svg width="83px" height="82px" viewBox="0 0 83 82" version="1.1" xmlns="http://www.w3.org/2000/svg" xmlns:xlink="http://www.w3.org/1999/xlink">
    <title>Group 24</title>
    <g id="Welcome" stroke="none" stroke-width="1" fill="none" fill-rule="evenodd">
        <g id="Desktop-HD-Copy" transform="translate(-1359.000000, 0.000000)">
            <g id="Group-24" transform="translate(1359.000000, 0.000000)">
                <polygon id="Path-4" fill="#00676D" points="-2.27373675e-13 -7.12762711e-15 80.6876314 81.3623225 80.6876314 0"></polygon>
                <path d="M59.288,7 C50.294,7 43,14.293 43,23.29 C43,30.487 47.667,36.592 54.14,38.746 C54.955,38.896 55.252,38.393 55.252,37.961 C55.252,37.574 55.238,36.55 55.23,35.191 C50.699,36.175 49.743,33.007 49.743,33.007 C49.002,31.125 47.934,30.624 47.934,30.624 C46.455,29.614 48.046,29.634 48.046,29.634 C49.681,29.749 50.541,31.313 50.541,31.313 C51.994,33.802 54.354,33.083 55.282,32.666 C55.43,31.614 55.851,30.896 56.316,30.489 C52.699,30.078 48.896,28.68 48.896,22.438 C48.896,20.66 49.531,19.205 50.573,18.067 C50.405,17.655 49.846,15.998 50.733,13.756 C50.733,13.756 52.1,13.318 55.212,15.426 C56.511,15.064 57.905,14.884 59.29,14.877 C60.674,14.884 62.067,15.064 63.368,15.426 C66.478,13.318 67.843,13.756 67.843,13.756 C68.732,15.998 68.173,17.655 68.006,18.067 C69.05,19.205 69.68,20.66 69.68,22.438 C69.68,28.696 65.871,30.073 62.243,30.476 C62.827,30.979 63.348,31.973 63.348,33.492 C63.348,35.67 63.328,37.427 63.328,37.961 C63.328,38.397 63.622,38.904 64.448,38.745 C70.916,36.586 75.579,30.485 75.579,23.29 C75.579,14.293 68.285,7 59.288,7" id="Fill-51" fill="#FFFFFE" transform="translate(59.289500, 22.887433) rotate(-315.000000) translate(-59.289500, -22.887433) "></path>
            </g>
        </g>
    </g>
</svg>