<?xml version="1.0" encoding="UTF-8"?>
<svg width="453px" height="267px" viewBox="0 0 453 267" version="1.1" xmlns="http://www.w3.org/2000/svg" xmlns:xlink="http://www.w3.org/1999/xlink">
    <title>Fill 8 + Fill 8 Mask</title>
    <defs>
        <rect id="path-1" x="0" y="0" width="453" height="267"></rect>
    </defs>
    <g id="Welcome" stroke="none" stroke-width="1" fill="none" fill-rule="evenodd">
        <g id="Desktop-HD-Copy" transform="translate(22.000000, -771.000000)">
            <g id="Fill-8-+-Fill-8-Mask" transform="translate(-22.000000, 771.000000)">
                <mask id="mask-2" fill="white">
                    <use xlink:href="#path-1"></use>
                </mask>
                <g id="Mask"></g>
                <polygon id="Fill-8" fill="#00878D" mask="url(#mask-2)" points="118.459335 52.8953 16.0404278 49.9998 -413 194.939766 -38.6211638 295.267972 296.215883 384.9998 675.594 362.472456 755 262.051669 658.534373 273.141345 616.484068 264.565713 561.503715 271.489038 535.412046 268.60785 504.409431 265.536783 472.973097 264.960675 462.708105 271.673418 364.763437 294.674073 323.201186 299.647817 306.119927 299.689222 281.516679 297.389965 275.377996 291.022369 266.934557 267.513213 418.73372 232.723206 425.10592 228.857362 440.434193 201.368822 431.150162 187.551932 434.100805 179.82639 423.205127 171.504685 416.290861 151.980088 388.794863 143.404131 380.457832 124.179395 277.144565 120.181573 207.847626 124.533276 166.084525 116.295027 173.423777 93.4609616 164.139746 79.6437481 167.09039 71.9188534"></polygon>
                <polygon id="Fill-8" fill="#DBF0F2" mask="url(#mask-2)" points="113.459335 46.8955 11.0404278 44 -418 188.939966 -43.6211638 289.268172 291.215883 379 670.594 356.472656 750 256.051869 653.534373 267.141545 611.484068 258.565913 556.503715 265.489238 530.412046 262.60805 499.409431 259.536983 467.973097 258.960875 457.708105 265.673618 359.763437 288.674273 318.201186 293.648017 301.119927 293.689422 276.516679 291.390165 270.377996 285.022569 261.934557 261.513413 413.73372 226.723406 420.10592 222.857562 435.434193 195.369022 426.150162 181.552132 429.100805 173.82659 418.205127 165.504885 411.290861 145.980288 383.794863 137.404331 375.457832 118.179595 272.144565 114.181773 202.847626 118.533476 161.084525 110.295227 168.423777 87.4611616 159.139746 73.6439481 162.09039 65.9190534"></polygon>
            </g>
        </g>
    </g>
</svg>