<?xml version="1.0" encoding="UTF-8"?>
<svg width="86px" height="73px" viewBox="0 0 86 73" version="1.1" xmlns="http://www.w3.org/2000/svg" xmlns:xlink="http://www.w3.org/1999/xlink">
    <title>Group 55</title>
    <defs>
        <polygon id="path-1" points="0.508 9.786 2.578 0.617 8.865 2.412 8.865 10.99"></polygon>
        <linearGradient x1="21.5290029%" y1="112.378971%" x2="95.2735099%" y2="-13.6071243%" id="linearGradient-3">
            <stop stop-color="#70CCD4" offset="0%"></stop>
            <stop stop-color="#A1DBDF" offset="100%"></stop>
        </linearGradient>
        <polygon id="path-4" points="0.053 0.757 0.053 9.334 20.856 14.068 20.856 5.49"></polygon>
        <linearGradient x1="8.75606018%" y1="86.3209929%" x2="88.4524814%" y2="16.1330507%" id="linearGradient-6">
            <stop stop-color="#70CCD4" offset="0%"></stop>
            <stop stop-color="#A1DBDF" offset="100%"></stop>
        </linearGradient>
        <polygon id="path-7" points="0.741 9.021 9.986 17 9.986 8.422 0.741 0.444"></polygon>
        <linearGradient x1="32.2448278%" y1="93.7613385%" x2="74.318188%" y2="-9.94246014%" id="linearGradient-9">
            <stop stop-color="#70CCD4" offset="0%"></stop>
            <stop stop-color="#A1DBDF" offset="100%"></stop>
        </linearGradient>
        <polygon id="path-10" points="1.986 18.24 34.251 16.19 44.584 7.436 32.949 0.747 24.37 0.747 0.368 6.887"></polygon>
        <linearGradient x1="52.1701264%" y1="53.3434251%" x2="43.2367016%" y2="44.1362714%" id="linearGradient-12">
            <stop stop-color="#007C82" offset="0%"></stop>
            <stop stop-color="#00676D" offset="100%"></stop>
        </linearGradient>
        <polygon id="path-13" points="0.742 0.684 0.742 9.262 9.986 17.241 9.986 8.663"></polygon>
        <linearGradient x1="62.605993%" y1="10.8862294%" x2="31.5809227%" y2="107.134979%" id="linearGradient-15">
            <stop stop-color="#DFF2F2" offset="0%"></stop>
            <stop stop-color="#A1DBDF" offset="100%"></stop>
        </linearGradient>
        <polygon id="path-16" points="24.673 0.612 26.762 2.567 24.673 9.19 0.986 11.241 0.986 2.663"></polygon>
        <linearGradient x1="49.164368%" y1="41.7001626%" x2="51.3456269%" y2="67.4574645%" id="linearGradient-18">
            <stop stop-color="#9CC8CD" offset="0%"></stop>
            <stop stop-color="#007C82" offset="100%"></stop>
        </linearGradient>
        <polygon id="path-19" points="0.673 9.612 0.673 18.19 11.007 9.437 11.007 0.859"></polygon>
        <linearGradient x1="41.8559742%" y1="28.1415042%" x2="68.13191%" y2="98.6634228%" id="linearGradient-21">
            <stop stop-color="#9CC8CD" offset="0%"></stop>
            <stop stop-color="#007C82" offset="100%"></stop>
        </linearGradient>
        <polygon id="path-22" points="0.855 8.49 9.434 8.49 26.742 2.919 12.723 0.861"></polygon>
        <linearGradient x1="52.0387496%" y1="56.0569935%" x2="45.5266701%" y2="40.4268916%" id="linearGradient-24">
            <stop stop-color="#007C82" offset="0%"></stop>
            <stop stop-color="#00676D" offset="100%"></stop>
        </linearGradient>
        <polygon id="path-25" points="0.053 0.178 0.053 8.757 20.856 13.49 20.856 4.912"></polygon>
        <linearGradient x1="63.5262597%" y1="19.8117752%" x2="41.3757626%" y2="69.2433394%" id="linearGradient-27">
            <stop stop-color="#DFF2F2" offset="0%"></stop>
            <stop stop-color="#A1DBDF" offset="100%"></stop>
        </linearGradient>
        <polygon id="path-28" points="18.165 0.341 18.165 8.919 0.856 14.49 0.856 5.912"></polygon>
        <linearGradient x1="42.7208348%" y1="27.7956765%" x2="65.0790982%" y2="96.0043176%" id="linearGradient-30">
            <stop stop-color="#9CC8CD" offset="0%"></stop>
            <stop stop-color="#007C82" offset="100%"></stop>
        </linearGradient>
        <polygon id="path-31" points="0.305 11.297 8.883 3.862 0.305 0.289"></polygon>
        <linearGradient x1="40.548506%" y1="34.6328416%" x2="-1.05668336%" y2="-104.456053%" id="linearGradient-33">
            <stop stop-color="#007C82" offset="0%"></stop>
            <stop stop-color="#00676D" offset="100%"></stop>
        </linearGradient>
        <polygon id="path-34" points="24.352 0.044 26.64 3.04 24.352 8.622 13.609 9.517 2.865 10.413 0.327 5.427 2.865 1.835 13.609 0.94"></polygon>
        <linearGradient x1="49.1817873%" y1="39.2619008%" x2="52.943301%" y2="81.7087429%" id="linearGradient-36">
            <stop stop-color="#9CC8CD" offset="0%"></stop>
            <stop stop-color="#007C82" offset="100%"></stop>
        </linearGradient>
        <polygon id="path-37" points="0.352 8.044 0.352 16.622 9.305 8.862 9.305 0.285"></polygon>
        <linearGradient x1="43.0528267%" y1="5.78933954%" x2="59.8320424%" y2="112.566643%" id="linearGradient-39">
            <stop stop-color="#9CC8CD" offset="0%"></stop>
            <stop stop-color="#007C82" offset="100%"></stop>
        </linearGradient>
        <polygon id="path-40" points="3.508 0.447 0.723 4.178 3.508 9.025 5.578 9.617 8.159 7.137"></polygon>
        <linearGradient x1="61.227184%" y1="-3.15157143%" x2="24.9918566%" y2="190.400593%" id="linearGradient-42">
            <stop stop-color="#9CC8CD" offset="0%"></stop>
            <stop stop-color="#007C82" offset="100%"></stop>
        </linearGradient>
        <polygon id="path-43" points="0.508 0.447 2.578 9.617 8.865 11.413 8.865 2.835"></polygon>
        <linearGradient x1="66.2099147%" y1="-24.1755435%" x2="39.5742841%" y2="97.7134178%" id="linearGradient-45">
            <stop stop-color="#DFF2F2" offset="0%"></stop>
            <stop stop-color="#A1DBDF" offset="100%"></stop>
        </linearGradient>
        <polygon id="path-46" points="0 2.038 0 10.616 17.508 9.025 17.508 0.447"></polygon>
        <linearGradient x1="48.9691227%" y1="32.8321735%" x2="52.4022618%" y2="89.9339088%" id="linearGradient-48">
            <stop stop-color="#9CC8CD" offset="0%"></stop>
            <stop stop-color="#007C82" offset="100%"></stop>
        </linearGradient>
    </defs>
    <g id="Welcome" stroke="none" stroke-width="1" fill="none" fill-rule="evenodd">
        <g id="Desktop-HD-Copy" transform="translate(-483.000000, -817.000000)">
            <g id="Group-55" transform="translate(526.000000, 853.500000) scale(-1, 1) translate(-526.000000, -853.500000) translate(483.000000, 817.000000)">
                <g id="Group-3" transform="translate(17.000000, 36.717500)">
                    <mask id="mask-2" fill="white">
                        <use xlink:href="#path-1"></use>
                    </mask>
                    <g id="Clip-2"></g>
                    <polygon id="Fill-1" fill="url(#linearGradient-3)" mask="url(#mask-2)" points="0.508 9.786 2.578 0.617 8.865 2.412 8.865 10.99"></polygon>
                </g>
                <g id="Group-6" transform="translate(39.000000, 10.717500)">
                    <mask id="mask-5" fill="white">
                        <use xlink:href="#path-4"></use>
                    </mask>
                    <g id="Clip-5"></g>
                    <polygon id="Fill-4" fill="url(#linearGradient-6)" mask="url(#mask-5)" points="0.053 0.757 0.053 9.334 20.856 14.068 20.856 5.49"></polygon>
                </g>
                <g id="Group-9" transform="translate(14.000000, 55.717500)">
                    <mask id="mask-8" fill="white">
                        <use xlink:href="#path-7"></use>
                    </mask>
                    <g id="Clip-8"></g>
                    <polygon id="Fill-7" fill="url(#linearGradient-9)" mask="url(#mask-8)" points="0.741 9.021 9.986 17 9.986 8.422 0.741 0.444"></polygon>
                </g>
                <g id="Group-12" transform="translate(22.000000, 46.717500)">
                    <mask id="mask-11" fill="white">
                        <use xlink:href="#path-10"></use>
                    </mask>
                    <g id="Clip-11"></g>
                    <polygon id="Fill-10" fill="url(#linearGradient-12)" mask="url(#mask-11)" points="1.986 18.24 34.251 16.19 44.584 7.436 32.949 0.747 24.37 0.747 0.368 6.887"></polygon>
                </g>
                <polygon id="Fill-13" fill="#00878D" points="25.9749 64.9579 32.5639 64.9579 56.2509 62.9079 58.0069 61.4199 58.0069 54.1539 25.9749 54.1539"></polygon>
                <polygon id="Fill-14" fill="#DBF0F2" points="24.4827 62.2723 48.1697 60.2213 58.0067 45.5763 46.3707 38.8863 23.9607 42.8373 14.7417 48.4013"></polygon>
                <g id="Group-17" transform="translate(14.000000, 47.717500)">
                    <mask id="mask-14" fill="white">
                        <use xlink:href="#path-13"></use>
                    </mask>
                    <g id="Clip-16"></g>
                    <polygon id="Fill-15" fill="url(#linearGradient-15)" mask="url(#mask-14)" points="0.742 0.684 0.742 9.262 9.986 17.241 9.986 8.663"></polygon>
                </g>
                <g id="Group-20" transform="translate(23.000000, 53.717500)">
                    <mask id="mask-17" fill="white">
                        <use xlink:href="#path-16"></use>
                    </mask>
                    <g id="Clip-19"></g>
                    <polygon id="Fill-18" fill="url(#linearGradient-18)" mask="url(#mask-17)" points="24.673 0.612 26.762 2.567 24.673 9.19 0.986 11.241 0.986 2.663"></polygon>
                </g>
                <g id="Group-23" transform="translate(47.000000, 44.717500)">
                    <mask id="mask-20" fill="white">
                        <use xlink:href="#path-19"></use>
                    </mask>
                    <g id="Clip-22"></g>
                    <polygon id="Fill-21" fill="url(#linearGradient-21)" mask="url(#mask-20)" points="0.673 9.612 0.673 18.19 11.007 9.437 11.007 0.859"></polygon>
                </g>
                <g id="Group-26" transform="translate(59.000000, 7.717500)">
                    <mask id="mask-23" fill="white">
                        <use xlink:href="#path-22"></use>
                    </mask>
                    <g id="Clip-25"></g>
                    <polygon id="Fill-24" fill="url(#linearGradient-24)" mask="url(#mask-23)" points="0.855 8.49 9.434 8.49 26.742 2.919 12.723 0.861"></polygon>
                </g>
                <polygon id="Fill-27" fill="#00878D" points="68.4339 16.2074 77.1649 13.3974 77.1649 10.6364 68.5209 10.6364 59.8559 16.2074"></polygon>
                <polygon id="Fill-28" fill="#DBF0F2" points="63.1449 0.0002 39.0529 2.8952 59.8559 16.2072 77.1649 2.0592"></polygon>
                <g id="Group-31" transform="translate(39.000000, 2.717500)">
                    <mask id="mask-26" fill="white">
                        <use xlink:href="#path-25"></use>
                    </mask>
                    <g id="Clip-30"></g>
                    <polygon id="Fill-29" fill="url(#linearGradient-27)" mask="url(#mask-26)" points="0.053 0.178 0.053 8.757 20.856 13.49 20.856 4.912"></polygon>
                </g>
                <g id="Group-34" transform="translate(59.000000, 1.717500)">
                    <mask id="mask-29" fill="white">
                        <use xlink:href="#path-28"></use>
                    </mask>
                    <g id="Clip-33"></g>
                    <polygon id="Fill-32" fill="url(#linearGradient-30)" mask="url(#mask-29)" points="18.165 0.341 18.165 8.919 0.856 14.49 0.856 5.912"></polygon>
                </g>
                <polygon id="Fill-35" fill="#00878D" points="41.9796 23.6117 26.0636 26.7947 3.9796 32.1667 -0.0004 38.3337 8.5766 38.3337 19.5786 37.3337 23.9296 37.0857 25.8646 39.1307 34.4426 39.1307 55.9296 37.3397 64.8826 29.5797 50.5576 23.6117"></polygon>
                <g id="Group-38" transform="translate(56.000000, 25.717500)">
                    <mask id="mask-32" fill="white">
                        <use xlink:href="#path-31"></use>
                    </mask>
                    <g id="Clip-37"></g>
                    <polygon id="Fill-36" fill="url(#linearGradient-33)" mask="url(#mask-32)" points="0.305 11.297 8.883 3.862 0.305 0.289"></polygon>
                </g>
                <polygon id="Fill-39" fill="#DBF0F2" points="26.064 18.2171 3.98 23.5881 0 29.7561 17.334 34.6041 25.864 39.1301 47.352 28.7611 56.305 21.0021 41.98 15.0341"></polygon>
                <g id="Group-42" transform="translate(23.000000, 28.717500)">
                    <mask id="mask-35" fill="white">
                        <use xlink:href="#path-34"></use>
                    </mask>
                    <g id="Clip-41"></g>
                    <polygon id="Fill-40" fill="url(#linearGradient-36)" mask="url(#mask-35)" points="24.352 0.044 26.64 3.04 24.352 8.622 13.609 9.517 2.865 10.413 0.327 5.427 2.865 1.835 13.609 0.94"></polygon>
                </g>
                <g id="Group-45" transform="translate(47.000000, 20.717500)">
                    <mask id="mask-38" fill="white">
                        <use xlink:href="#path-37"></use>
                    </mask>
                    <g id="Clip-44"></g>
                    <polygon id="Fill-43" fill="url(#linearGradient-39)" mask="url(#mask-38)" points="0.352 8.044 0.352 16.622 9.305 8.862 9.305 0.285"></polygon>
                </g>
                <g id="Group-48" transform="translate(14.000000, 27.717500)">
                    <mask id="mask-41" fill="white">
                        <use xlink:href="#path-40"></use>
                    </mask>
                    <g id="Clip-47"></g>
                    <polygon id="Fill-46" fill="url(#linearGradient-42)" mask="url(#mask-41)" points="3.508 0.447 0.723 4.178 3.508 9.025 5.578 9.617 8.159 7.137"></polygon>
                </g>
                <g id="Group-51" transform="translate(17.000000, 27.717500)">
                    <mask id="mask-44" fill="white">
                        <use xlink:href="#path-43"></use>
                    </mask>
                    <g id="Clip-50"></g>
                    <polygon id="Fill-49" fill="url(#linearGradient-45)" mask="url(#mask-44)" points="0.508 0.447 2.578 9.617 8.865 11.413 8.865 2.835"></polygon>
                </g>
                <g id="Group-54" transform="translate(0.000000, 27.717500)">
                    <mask id="mask-47" fill="white">
                        <use xlink:href="#path-46"></use>
                    </mask>
                    <g id="Clip-53"></g>
                    <polygon id="Fill-52" fill="url(#linearGradient-48)" mask="url(#mask-47)" points="0 2.038 0 10.616 17.508 9.025 17.508 0.447"></polygon>
                </g>
            </g>
        </g>
    </g>
</svg>