<?xml version="1.0" encoding="UTF-8"?>
<svg width="38px" height="38px" viewBox="0 0 38 38" version="1.1" xmlns="http://www.w3.org/2000/svg" xmlns:xlink="http://www.w3.org/1999/xlink">
    <title>Shape</title>
    <g id="Welcome" stroke="none" stroke-width="1" fill="none" fill-rule="evenodd">
        <g id="Step-2" transform="translate(-1099.000000, -322.000000)" fill="#71CBD3" fill-rule="nonzero">
            <g id="Group-24" transform="translate(175.000000, 257.000000)">
                <g id="Group-8" transform="translate(805.000000, 33.000000)">
                    <g id="Field---weight" transform="translate(73.000000, 0.000000)">
                        <path d="M83.9915179,44.2142857 C83.9915179,43.3151786 83.7709821,42.4330357 83.346875,41.6441964 L79.1821429,33.8491071 C78.8174107,32.7464286 77.7825893,32 76.6120536,32 L53.3879464,32 C52.2174107,32 51.1825893,32.7464286 50.809375,33.8575893 L46.6446429,41.6526786 C46.2205357,42.4415179 46,43.3236607 46,44.2227679 C46.0084821,49.3544643 46,67.2857143 46,67.2857143 C46,68.7870536 47.2129464,70 48.7142857,70 L81.2857143,70 C82.7870536,70 84,68.7870536 84,67.2857143 C84,67.2857143 83.9915179,49.3544643 83.9915179,44.2142857 Z M76.6120536,34.7142857 L80.9209821,42.8571429 L70.2674107,42.8571429 L69.2495536,34.7142857 L76.6120536,34.7142857 L76.6120536,34.7142857 Z M62.2857143,45.5714286 L67.7142857,45.5714286 L67.7142857,51 L62.2857143,51 L62.2857143,45.5714286 Z M66.5183036,34.7142857 L67.5361607,42.8571429 L62.4638393,42.8571429 L63.4816964,34.7142857 L66.5183036,34.7142857 L66.5183036,34.7142857 Z M53.3879464,34.7142857 L60.7504464,34.7142857 L59.7325893,42.8571429 L49.0790179,42.8571429 L53.3879464,34.7142857 Z M48.7142857,67.2857143 C48.7142857,67.2857143 48.7227679,51.9245536 48.7227679,45.5714286 L59.5714286,45.5714286 L59.5714286,51 C59.5714286,52.5013393 60.784375,53.7142857 62.2857143,53.7142857 L67.7142857,53.7142857 C69.215625,53.7142857 70.4285714,52.5013393 70.4285714,51 L70.4285714,45.5714286 L81.2772321,45.5714286 C81.2772321,51.9245536 81.2857143,67.2857143 81.2857143,67.2857143 L48.7142857,67.2857143 Z" id="Shape"></path>
                    </g>
                </g>
            </g>
        </g>
    </g>
</svg>