<?xml version="1.0" encoding="UTF-8" standalone="no"?>
<!DOCTYPE svg PUBLIC "-//W3C//DTD SVG 1.1//EN" "http://www.w3.org/Graphics/SVG/1.1/DTD/svg11.dtd">
<svg width="100%" height="100%" viewBox="0 0 30 30" version="1.1" xmlns="http://www.w3.org/2000/svg" xmlns:xlink="http://www.w3.org/1999/xlink" xml:space="preserve" xmlns:serif="http://www.serif.com/" style="fill-rule:evenodd;clip-rule:evenodd;stroke-linejoin:round;stroke-miterlimit:2;">
    <g>
        <path d="M14.768,0C6.611,0 0,6.609 0,14.768C0,22.923 6.611,29.535 14.768,29.535C22.922,29.535 29.534,22.923 29.534,14.768C29.534,6.609 22.923,0 14.768,0ZM14.768,27.126C7.938,27.126 2.407,21.594 2.407,14.767C2.407,7.939 7.938,2.405 14.768,2.405C21.592,2.405 27.127,7.94 27.127,14.767C27.128,21.594 21.592,27.126 14.768,27.126Z" style="fill:rgb(87,86,87);fill-rule:nonzero;stroke:rgb(87,86,87);stroke-width:1px;"/>
        <path d="M16.83,11.143L12.679,11.143L12.679,11.15L11.134,11.15L11.134,13.563L12.679,13.563L12.679,22.181L11.039,22.181L11.039,24.487L12.679,24.487L12.679,24.503L16.83,24.503L16.83,24.487L18.188,24.487L18.188,22.181L16.83,22.181L16.83,11.143Z" style="fill:rgb(87,86,87);fill-rule:nonzero;stroke:rgb(87,86,87);stroke-width:1px;"/>
        <path d="M14.726,9.504C16.121,9.504 16.966,8.576 16.966,7.427C16.939,6.255 16.12,5.355 14.782,5.355C13.446,5.355 12.571,6.254 12.571,7.427C12.57,8.576 13.417,9.504 14.726,9.504Z" style="fill:rgb(87,86,87);fill-rule:nonzero;stroke:rgb(87,86,87);stroke-width:1px;"/>
    </g>
</svg>
