<svg id="Layer_1" data-name="Layer 1" xmlns="http://www.w3.org/2000/svg" viewBox="0 0 114.43 281.42"><defs><style>.cls-1{fill:#262a3a;}.cls-2{fill:#323747;}.cls-3{fill:#3e4454;}.cls-4{fill:#faf4f9;}.cls-5{fill:#f3edf2;}.cls-6{fill:#f4f5fc;}.cls-7{fill:#fdfcf6;}.cls-8{fill:#fbfcff;}.cls-9{fill:#eaf1f6;}.cls-10{fill:#e7effa;}.cls-11{fill:#ded8df;}.cls-12{fill:#eae3eb;}.cls-13{fill:#e5edfa;}.cls-14{fill:#d8dfed;}.cls-15{fill:#d4dbe7;}.cls-16{fill:#d1d4e1;}.cls-17{fill:#c6bec3;}.cls-18{fill:#ded6dc;}.cls-19{fill:#d9deed;}.cls-20{fill:#9b9790;}.cls-21{fill:#4a4e51;}.cls-22{fill:#e2e3ed;}.cls-23{fill:#161f30;}.cls-24{fill:#3c4253;}.cls-25{fill:#e6d4d0;}.cls-26{fill:#fa9530;}.cls-27{fill:#353652;}.cls-28{fill:#f78122;}.cls-29{fill:#ffe954;}.cls-30{fill:#c2bba8;}.cls-31{fill:#e9bb34;}.cls-32{fill:#131c2c;}.cls-33{fill:#1d283b;}.cls-34{fill:#222a45;}.cls-35{fill:#0e1223;}.cls-36{fill:#121722;}.cls-37{fill:#0f1827;}.cls-38{fill:#282b3c;}.cls-39{fill:#1b2230;}.cls-40{fill:#404658;}.cls-41{fill:#383947;}.cls-42{fill:#373a47;}.cls-43{fill:#2a2d3a;}.cls-44{fill:#222b3d;}.cls-45{fill:#1a2335;}.cls-46{fill:#172232;}.cls-47{fill:#1e2737;}.cls-48{fill:#bab1b6;}.cls-49{fill:#b0acaa;}.cls-50{fill:#030407;}.cls-51{fill:#5d6366;}.cls-52{fill:#393f42;}.cls-53{fill:#192335;}.cls-54{fill:#2a3349;}.cls-55{fill:#e27124;}</style></defs><polygon class="cls-1" points="8.16 209.14 14.28 171.84 0 201.85 8.16 209.14"/><polygon class="cls-2" points="0 170.67 14.01 161.99 14.28 171.84 0 201.85 0 170.67"/><polygon class="cls-3" points="20.25 87.91 0 170.67 14.01 161.99 24.77 110.06 20.25 87.91"/><polygon class="cls-4" points="76.93 87.91 61.49 111.81 85.68 132.21 76.93 87.91"/><polygon class="cls-5" points="85.68 173.3 85.68 132.21 61.49 111.81 48.67 165.72 85.68 173.3"/><polygon class="cls-6" points="42.26 87.91 61.49 111.81 48.67 165.72 38.18 133.95 42.26 87.91"/><polygon class="cls-7" points="71.4 61.39 76.93 87.91 42.26 87.91 47.13 63.72 71.4 61.39"/><polygon class="cls-8" points="61.49 111.81 76.93 87.91 42.26 87.91 61.49 111.81"/><polygon class="cls-9" points="47.13 63.72 38.18 63.72 34.39 61.39 20.69 86.45 42.26 87.91 47.13 63.72"/><polygon class="cls-10" points="38.18 133.95 23.61 111.81 20.69 86.45 42.26 87.91 38.18 133.95"/><polygon class="cls-11" points="39.63 199.23 71.98 223.13 48.67 165.72 39.63 199.23"/><polygon class="cls-12" points="85.68 173.3 48.67 165.72 71.98 223.13 85.68 173.3"/><polygon class="cls-13" points="23.61 111.81 27.68 164.26 39.63 199.23 48.67 165.72 38.18 133.95 23.61 111.81"/><polygon class="cls-14" points="20.69 86.45 23.61 111.81 12.82 130.17 20.69 86.45"/><polygon class="cls-15" points="14.28 169.22 27.68 164.26 23.61 111.81 12.82 130.17 14.28 169.22"/><polygon class="cls-16" points="18.21 223.13 39.63 199.23 28.92 163.97 14.28 169.22 18.21 223.13"/><polygon class="cls-17" points="71.98 223.13 48.67 228.66 23.61 217.11 39.63 199.23 71.98 223.13"/><polygon class="cls-18" points="83.06 230.41 85.68 173.3 71.98 223.13 83.06 230.41"/><polygon class="cls-19" points="80.72 265.09 65.08 254.31 63.53 244.01 83.06 230.41 80.72 265.09"/><polygon class="cls-20" points="51.87 237.21 63.53 244.01 83.06 230.41 71.98 223.13 48.67 228.66 51.87 237.21"/><polygon class="cls-20" points="41.58 240.52 51.87 237.21 48.67 228.66 23.61 217.11 18.21 223.13 41.58 240.52"/><polygon class="cls-21" points="39.73 249.45 41.58 240.52 51.55 237.32 63.53 244.01 65.08 254.31 55.81 245.47 48.67 245.28 39.73 249.45"/><polygon class="cls-22" points="26.96 255.28 26.96 255.28 39.73 249.45 42.39 240.26 18.21 223.13 26.96 255.28"/><polygon class="cls-1" points="71.4 61.39 74.89 61.39 83.35 74.65 97.04 115.6 85.68 99.86 71.4 61.39"/><polygon class="cls-1" points="108.6 142.55 112.88 176.6 114.43 223.13 105.49 213.95 100.44 169.22 95.39 147.07 85.68 119.87 86.39 100.85 97.04 115.6 108.6 142.55"/><polygon class="cls-23" points="80.72 265.09 87.62 258.97 97.04 208.85 97.04 161.99 85.68 119.87 85.68 132.21 85.68 184.76 83.06 226.33 80.72 265.09"/><polygon class="cls-24" points="71.4 61.39 76.93 87.91 85.68 130.17 86.39 100.85 71.4 61.39"/><polygon class="cls-25" points="74.89 61.39 76.93 39.24 61.49 44.88 74.89 61.39"/><polygon class="cls-26" points="74.02 31.09 68 29.14 62.95 35.75 62.95 41.19 59.59 43.91 61.49 44.88 76.93 39.24 74.02 31.09"/><polygon class="cls-27" points="6.8 1.36 13.79 0 40.22 12.82 58.28 17.1 68.27 25.26 74.02 31.09 68 29.14 62.95 35.75 62.95 41.19 59.59 43.91 43.52 48.38 36.33 46.04 33.91 26.03 13.99 6.22 6.8 1.36"/><polygon class="cls-28" points="42.98 20.01 42.98 25.55 36.72 25.55 16.76 6.61 42.98 20.01"/><polygon class="cls-29" points="43.52 48.38 39.44 51.09 47.13 63.72 71.4 61.39 43.52 48.38"/><polygon class="cls-30" points="61.49 44.88 74.89 61.39 71.4 61.39 43.52 48.38 59.59 43.91 61.49 44.88"/><polygon class="cls-31" points="34.39 61.39 38.18 63.72 47.13 63.72 39.44 51.09 36.14 48.38 34.39 61.39"/><polygon class="cls-32" points="43.52 48.38 39.44 51.09 36.14 48.38 36.33 46.04 43.52 48.38"/><polygon class="cls-33" points="80.72 265.09 80.72 268.13 79.44 270.93 76.04 279.48 69.14 281.42 66.61 276.47 59.04 280.16 57.97 274.52 54.57 277.83 52.04 276.18 52.04 271.32 62.56 268.01 65.86 254.85 80.72 265.09"/><polygon class="cls-34" points="48.67 245.28 43.52 266.94 39.73 274.9 33.8 276.65 30.3 272.96 25.45 275.29 20.98 269.25 16.51 275.1 16.51 267.12 27.59 263.83 26.96 255.28 48.67 245.28"/><polygon class="cls-35" points="40.14 249.21 40.6 268.2 39.37 275.01 43.52 266.94 48.67 245.28 40.14 249.21"/><polygon class="cls-36" points="73.54 260.14 79.44 270.93 80.72 268.13 80.72 265.09 73.54 260.14"/><polygon class="cls-37" points="59.59 43.91 45.46 40.99 39.44 47.05 43.52 48.38 59.59 43.91"/><polygon class="cls-38" points="42.98 25.55 59.59 43.91 45.46 40.99 36.72 25.55 42.98 25.55"/><polygon class="cls-39" points="33.91 26.03 36.72 25.55 45.46 40.99 39.44 47.05 36.33 46.04 33.91 26.03"/><polygon class="cls-40" points="42.98 20.01 49.52 24.19 58.28 17.1 40.22 12.82 42.98 20.01"/><polygon class="cls-41" points="68 29.14 49.52 24.19 58.28 17.1 74.02 31.09 68 29.14"/><polygon class="cls-42" points="58.28 31.09 62.95 35.75 62.95 41.19 59.59 43.91 42.98 25.55 52.97 25.11 58.28 31.09"/><polygon class="cls-43" points="68 29.14 52.97 25.11 62.95 35.75 68 29.14"/><polygon class="cls-44" points="66.49 255.28 71.52 268.84 62.56 268.01 65.86 254.85 66.49 255.28"/><polygon class="cls-45" points="79.44 270.93 71.52 268.84 66.49 255.28 73.54 260.14 79.44 270.93"/><polygon class="cls-46" points="26.96 255.28 33.08 264.22 27.59 263.83 26.96 255.28"/><polygon class="cls-47" points="40.14 249.21 33.08 264.22 40.53 265.09 40.14 249.21"/><polygon class="cls-48" points="39.63 199.23 48.67 228.66 23.61 217.11 39.63 199.23"/><polygon class="cls-49" points="71.98 223.13 63.53 244.01 82.8 230.59 71.98 223.13"/><polygon class="cls-50" points="52.97 25.11 49.52 24.19 50.61 25.55 52.97 25.11"/><polygon class="cls-51" points="42.39 240.26 48.67 245.28 39.37 249.56 42.39 240.26"/><polygon class="cls-52" points="63.53 244.01 55.81 245.47 65.08 254.31 63.53 244.01"/><polygon class="cls-53" points="76.04 279.48 73.68 276.68 69.14 281.42 76.04 279.48"/><polygon class="cls-54" points="73.68 276.68 70.55 274.43 66.61 276.47 69.14 281.42 73.68 276.68"/><polygon class="cls-53" points="79.44 270.93 73.68 276.68 76.04 279.48 79.44 270.93"/><polygon class="cls-36" points="69.14 281.42 65.44 277.93 59.04 280.16 66.61 276.47 69.14 281.42"/><polyline class="cls-54" points="66.61 276.47 63 274.43 59.04 273.68 57.97 274.52 59.04 280.16 66.61 276.47"/><polygon class="cls-35" points="54.57 277.83 58.42 276.92 57.97 274.52 54.57 277.83"/><polygon class="cls-35" points="52.04 271.12 53.18 276.92 52.04 276.18 52.04 271.12"/><polygon class="cls-54" points="57.97 274.52 56.5 271.99 52.04 271.32 53.18 276.92 54.57 277.83 57.97 274.52"/><polygon class="cls-54" points="71.52 268.84 59.04 273.68 63 274.43 71.52 268.84"/><path class="cls-54" d="M373.31,463.74" transform="translate(-302.76 -189.31)"/><polygon class="cls-54" points="39.37 275.01 36.8 270.61 30.3 272.96 33.8 276.65 39.37 275.01"/><polygon class="cls-54" points="25.45 275.29 30.3 272.96 27.88 269.25 20.98 269.25 25.45 275.29"/><polygon class="cls-35" points="33.8 276.65 29.62 275.01 25.45 275.29 30.3 272.96 33.8 276.65"/><polygon class="cls-35" points="16.51 275.1 20.98 269.25 25.45 275.29 20.98 272.27 16.51 275.1"/><polygon class="cls-54" points="20.98 269.25 19.23 267.56 16.51 267.12 16.51 275.1 20.98 269.25"/><polygon class="cls-35" points="27.88 269.25 33.08 264.22 30.3 272.96 27.88 269.25"/><polygon class="cls-36" points="71.52 268.84 66.61 276.47 63 274.43 71.52 268.84"/><polygon class="cls-55" points="42.98 25.55 16.76 6.61 36.72 25.55 42.98 25.55"/><polygon class="cls-1" points="8.16 209.14 14.28 171.84 0 201.85 8.16 209.14"/><polygon class="cls-2" points="0 170.67 14.01 161.99 14.28 171.84 0 201.85 0 170.67"/><polygon class="cls-3" points="20.25 87.91 0 170.67 14.01 161.99 24.77 110.06 20.25 87.91"/><polygon class="cls-4" points="76.93 87.91 61.49 111.81 85.68 132.21 76.93 87.91"/><polygon class="cls-5" points="85.68 173.3 85.68 132.21 61.49 111.81 48.67 165.72 85.68 173.3"/><polygon class="cls-6" points="42.26 87.91 61.49 111.81 48.67 165.72 38.18 133.95 42.26 87.91"/><polygon class="cls-7" points="71.4 61.39 76.93 87.91 42.26 87.91 47.13 63.72 71.4 61.39"/><polygon class="cls-8" points="61.49 111.81 76.93 87.91 42.26 87.91 61.49 111.81"/><polygon class="cls-9" points="47.13 63.72 38.18 63.72 34.39 61.39 20.69 86.45 42.26 87.91 47.13 63.72"/><polygon class="cls-10" points="38.18 133.95 23.61 111.81 20.69 86.45 42.26 87.91 38.18 133.95"/><polygon class="cls-11" points="39.63 199.23 71.98 223.13 48.67 165.72 39.63 199.23"/><polygon class="cls-12" points="85.68 173.3 48.67 165.72 71.98 223.13 85.68 173.3"/><polygon class="cls-13" points="23.61 111.81 27.68 164.26 39.63 199.23 48.67 165.72 38.18 133.95 23.61 111.81"/><polygon class="cls-14" points="20.69 86.45 23.61 111.81 12.82 130.17 20.69 86.45"/><polygon class="cls-15" points="14.28 169.22 27.68 164.26 23.61 111.81 12.82 130.17 14.28 169.22"/><polygon class="cls-16" points="18.21 223.13 39.63 199.23 28.92 163.97 14.28 169.22 18.21 223.13"/><polygon class="cls-17" points="71.98 223.13 48.67 228.66 23.61 217.11 39.63 199.23 71.98 223.13"/><polygon class="cls-18" points="83.06 230.41 85.68 173.3 71.98 223.13 83.06 230.41"/><polygon class="cls-19" points="80.72 265.09 65.08 254.31 63.53 244.01 83.06 230.41 80.72 265.09"/><polygon class="cls-20" points="51.87 237.21 63.53 244.01 83.06 230.41 71.98 223.13 48.67 228.66 51.87 237.21"/><polygon class="cls-20" points="41.58 240.52 51.87 237.21 48.67 228.66 23.61 217.11 18.21 223.13 41.58 240.52"/><polygon class="cls-21" points="39.73 249.45 41.58 240.52 51.55 237.32 63.53 244.01 65.08 254.31 55.81 245.47 48.67 245.28 39.73 249.45"/><polygon class="cls-22" points="26.96 255.28 26.96 255.28 39.73 249.45 42.39 240.26 18.21 223.13 26.96 255.28"/><polygon class="cls-1" points="71.4 61.39 74.89 61.39 83.35 74.65 97.04 115.6 85.68 99.86 71.4 61.39"/><polygon class="cls-1" points="108.6 142.55 112.88 176.6 114.43 223.13 105.49 213.95 100.44 169.22 95.39 147.07 85.68 119.87 86.39 100.85 97.04 115.6 108.6 142.55"/><polygon class="cls-23" points="80.72 265.09 87.62 258.97 97.04 208.85 97.04 161.99 85.68 119.87 85.68 132.21 85.68 184.76 83.06 226.33 80.72 265.09"/><polygon class="cls-24" points="71.4 61.39 76.93 87.91 85.68 130.17 86.39 100.85 71.4 61.39"/><polygon class="cls-25" points="74.89 61.39 76.93 39.24 61.49 44.88 74.89 61.39"/><polygon class="cls-26" points="74.02 31.09 68 29.14 62.95 35.75 62.95 41.19 59.59 43.91 61.49 44.88 76.93 39.24 74.02 31.09"/><polygon class="cls-27" points="6.8 1.36 13.79 0 40.22 12.82 58.28 17.1 68.27 25.26 74.02 31.09 68 29.14 62.95 35.75 62.95 41.19 59.59 43.91 43.52 48.38 36.33 46.04 33.91 26.03 13.99 6.22 6.8 1.36"/><polygon class="cls-28" points="42.98 20.01 42.98 25.55 36.72 25.55 16.76 6.61 42.98 20.01"/><polygon class="cls-29" points="43.52 48.38 39.44 51.09 47.13 63.72 71.4 61.39 43.52 48.38"/><polygon class="cls-30" points="61.49 44.88 74.89 61.39 71.4 61.39 43.52 48.38 59.59 43.91 61.49 44.88"/><polygon class="cls-31" points="34.39 61.39 38.18 63.72 47.13 63.72 39.44 51.09 36.14 48.38 34.39 61.39"/><polygon class="cls-32" points="43.52 48.38 39.44 51.09 36.14 48.38 36.33 46.04 43.52 48.38"/><polygon class="cls-33" points="80.72 265.09 80.72 268.13 79.44 270.93 76.04 279.48 69.14 281.42 66.61 276.47 59.04 280.16 57.97 274.52 54.57 277.83 52.04 276.18 52.04 271.32 62.56 268.01 65.86 254.85 80.72 265.09"/><polygon class="cls-34" points="48.67 245.28 43.52 266.94 39.73 274.9 33.8 276.65 30.3 272.96 25.45 275.29 20.98 269.25 16.51 275.1 16.51 267.12 27.59 263.83 26.96 255.28 48.67 245.28"/><polygon class="cls-35" points="40.14 249.21 40.6 268.2 39.37 275.01 43.52 266.94 48.67 245.28 40.14 249.21"/><polygon class="cls-36" points="73.54 260.14 79.44 270.93 80.72 268.13 80.72 265.09 73.54 260.14"/><polygon class="cls-37" points="59.59 43.91 45.46 40.99 39.44 47.05 43.52 48.38 59.59 43.91"/><polygon class="cls-38" points="42.98 25.55 59.59 43.91 45.46 40.99 36.72 25.55 42.98 25.55"/><polygon class="cls-39" points="33.91 26.03 36.72 25.55 45.46 40.99 39.44 47.05 36.33 46.04 33.91 26.03"/><polygon class="cls-40" points="42.98 20.01 49.52 24.19 58.28 17.1 40.22 12.82 42.98 20.01"/><polygon class="cls-41" points="68 29.14 49.52 24.19 58.28 17.1 74.02 31.09 68 29.14"/><polygon class="cls-42" points="58.28 31.09 62.95 35.75 62.95 41.19 59.59 43.91 42.98 25.55 52.97 25.11 58.28 31.09"/><polygon class="cls-43" points="68 29.14 52.97 25.11 62.95 35.75 68 29.14"/><polygon class="cls-44" points="66.49 255.28 71.52 268.84 62.56 268.01 65.86 254.85 66.49 255.28"/><polygon class="cls-45" points="79.44 270.93 71.52 268.84 66.49 255.28 73.54 260.14 79.44 270.93"/><polygon class="cls-46" points="26.96 255.28 33.08 264.22 27.59 263.83 26.96 255.28"/><polygon class="cls-47" points="40.14 249.21 33.08 264.22 40.53 265.09 40.14 249.21"/><polygon class="cls-48" points="39.63 199.23 48.67 228.66 23.61 217.11 39.63 199.23"/><polygon class="cls-49" points="71.98 223.13 63.53 244.01 82.8 230.59 71.98 223.13"/><polygon class="cls-50" points="52.97 25.11 49.52 24.19 50.61 25.55 52.97 25.11"/><polygon class="cls-51" points="42.39 240.26 48.67 245.28 39.37 249.56 42.39 240.26"/><polygon class="cls-52" points="63.53 244.01 55.81 245.47 65.08 254.31 63.53 244.01"/><polygon class="cls-53" points="76.04 279.48 73.68 276.68 69.14 281.42 76.04 279.48"/><polygon class="cls-54" points="73.68 276.68 70.55 274.43 66.61 276.47 69.14 281.42 73.68 276.68"/><polygon class="cls-53" points="79.44 270.93 73.68 276.68 76.04 279.48 79.44 270.93"/><polygon class="cls-36" points="69.14 281.42 65.44 277.93 59.04 280.16 66.61 276.47 69.14 281.42"/><polyline class="cls-54" points="66.61 276.47 63 274.43 59.04 273.68 57.97 274.52 59.04 280.16 66.61 276.47"/><polygon class="cls-35" points="54.57 277.83 58.42 276.92 57.97 274.52 54.57 277.83"/><polygon class="cls-35" points="52.04 271.12 53.18 276.92 52.04 276.18 52.04 271.12"/><polygon class="cls-54" points="57.97 274.52 56.5 271.99 52.04 271.32 53.18 276.92 54.57 277.83 57.97 274.52"/><polygon class="cls-54" points="71.52 268.84 59.04 273.68 63 274.43 71.52 268.84"/><path class="cls-54" d="M373.31,463.74" transform="translate(-302.76 -189.31)"/><polygon class="cls-54" points="39.37 275.01 36.8 270.61 30.3 272.96 33.8 276.65 39.37 275.01"/><polygon class="cls-54" points="25.45 275.29 30.3 272.96 27.88 269.25 20.98 269.25 25.45 275.29"/><polygon class="cls-35" points="33.8 276.65 29.62 275.01 25.45 275.29 30.3 272.96 33.8 276.65"/><polygon class="cls-35" points="16.51 275.1 20.98 269.25 25.45 275.29 20.98 272.27 16.51 275.1"/><polygon class="cls-54" points="20.98 269.25 19.23 267.56 16.51 267.12 16.51 275.1 20.98 269.25"/><polygon class="cls-35" points="27.88 269.25 33.08 264.22 30.3 272.96 27.88 269.25"/><polygon class="cls-36" points="71.52 268.84 66.61 276.47 63 274.43 71.52 268.84"/><polygon class="cls-55" points="42.98 25.55 16.76 6.61 36.72 25.55 42.98 25.55"/></svg>