<?xml version="1.0" encoding="UTF-8"?>
<svg width="60px" height="65px" viewBox="0 0 60 65" version="1.1" xmlns="http://www.w3.org/2000/svg" xmlns:xlink="http://www.w3.org/1999/xlink">
    <title>Group 6</title>
    <defs>
        <filter id="filter-1">
            <feColorMatrix in="SourceGraphic" type="matrix" values="0 0 0 0 1.000000 0 0 0 0 1.000000 0 0 0 0 1.000000 0 0 0 1.000000 0"></feColorMatrix>
        </filter>
        <polygon id="path-2" points="2.48962656e-05 0.0179310345 59.8147718 0.0179310345 59.8147718 64.9999751 2.48962656e-05 64.9999751"></polygon>
    </defs>
    <g id="Welcome" stroke="none" stroke-width="1" fill="none" fill-rule="evenodd">
        <g id="Desktop-HD-Copy" transform="translate(-534.000000, -75.000000)">
            <g id="Group" transform="translate(534.000000, 75.000000)">
                <g filter="url(#filter-1)" id="Group-6">
                    <g>
                        <g id="Group-3">
                            <mask id="mask-3" fill="white">
                                <use xlink:href="#path-2"></use>
                            </mask>
                            <g id="Clip-2"></g>
                            <path d="M29.599444,14.3198985 C33.0351286,15.1168333 41.1015187,19.5746877 41.5247552,23.0612778 C41.5247552,23.0612778 25.3421826,24.6800517 33.9811867,49.0363736 C35.485917,53.5988257 34.7691535,51.8532893 36.445917,55.5453391 C34.3538838,56.0800326 32.1632614,56.3649368 29.9074108,56.3649368 C28.3337178,56.3649368 26.792888,56.2237299 25.2941328,55.9585 C24.2151286,52.4420249 23.1122241,48.9305307 22.3048382,45.3256456 C19.8650041,34.118749 25.9147967,31.5038065 25.9147967,31.5038065 C13.5911452,26.6723889 20.6118921,11.6053391 29.599444,14.3198985 M29.9074108,0.0179061303 C13.4163734,0.0179061303 2.48962656e-05,13.4385383 2.48962656e-05,29.934592 C2.48962656e-05,37.3548027 2.71570954,44.15191 7.20351037,49.3860287 L7.81421577,44.4136533 C5.079361,40.25191 3.48550207,35.2762969 3.48550207,29.934592 C3.48550207,15.3608946 15.3383651,3.50449617 29.9074108,3.50449617 C44.4764564,3.50449617 56.3293195,15.3608946 56.3293195,29.934592 C56.3293195,41.3504349 49.0563734,51.0981935 38.9024315,54.7870057 C37.1893195,51.0214885 37.8002739,52.6803582 36.346332,47.9654923 C28.8276598,23.7336916 43.665834,24.9041897 50.2135519,25.5516992 C50.8359585,25.6015077 52.0807718,24.1819674 50.1139668,23.3850326 C44.7363734,21.2432701 40.0977012,18.3738065 35.4500664,14.6685575 C28.6782822,8.16855747 16.3048382,11.0076379 14.1139668,21.2183659 C13.3670788,24.7049559 12.7944647,28.2164502 12.2716432,31.7279444 C11.5247552,36.9578295 10.8774523,42.1877146 10.3297344,47.4175996 C9.73222407,53.27009 9.10981743,59.1225805 8.61189212,64.9999751 L26.0870788,59.6074655 C27.3381162,59.7678487 28.6133029,59.8515268 29.9074108,59.8515268 C46.3984481,59.8515268 59.8147967,46.4308946 59.8147967,29.934592 C59.8147967,13.4385383 46.3984481,0.0179061303 29.9074108,0.0179061303" id="Fill-1" fill="#000000" mask="url(#mask-3)"></path>
                        </g>
                        <path d="M31.2886986,18.6862745 C32.05871,18.6862745 32.5572001,19.6004902 31.8988169,20.3139706 C31.1137072,20.7963235 30.3729023,20.2634804 30.3729023,19.5931373 C30.3729023,19.0784314 30.7936736,18.6862745 31.2886986,18.6862745 M30.4998762,23 C31.8859462,23 33,21.872549 33,20.5 C33,19.127451 31.8859462,18 30.4998762,18 C29.1138062,18 28,19.127451 28,20.5 C28,21.872549 29.1138062,23 30.4998762,23" id="Fill-4" fill="#000000"></path>
                    </g>
                </g>
            </g>
        </g>
    </g>
</svg>