<svg xmlns="http://www.w3.org/2000/svg" width="5000" height="920.5" viewBox="0 0 10000 1841">
  <defs>
    <style>
      .cls-1 {
        fill: #000;
      }

      .cls-1, .cls-2, .cls-3, .cls-4, .cls-5 {
        fill-rule: evenodd;
      }

      .cls-2 {
        fill: #000;
      }

      .cls-3 {
        fill: #000;
      }

      .cls-4 {
        fill: #000;
      }
    </style>
  </defs>
  <path id="Color_Fill_3" data-name="Color Fill 3" class="cls-1" d="M4735.96,1326.99c136.28-2.31,139.86,181.47,18.89,200.97-67.7,10.92-121.09-67.26-99.88-132.78,8.91-27.53,29.87-51.29,55.79-61.9Q4723.36,1330.13,4735.96,1326.99Zm-251.96,1.8c51.52-.8,105.58-5.27,127.78,23.33,30.71,39.56,8.94,90.49-29.7,104.97-14.95,5.6-39.33,3.89-59.39,3.58v65.5H4484V1328.79Zm371.64,0,39.59,0.9q18.9,62.34,37.8,124.7h0.89q19.8-62.79,39.6-125.6h23.39q20.25,62.79,40.5,125.6,18.885-62.79,37.79-125.6h38.69v0.9q-31.035,98.22-62.08,196.48h-27l-1.8-.9q-18.9-60.105-37.79-120.22h-0.9q-18.9,60.555-37.8,121.12h-27.89Q4887.13,1427.485,4855.64,1328.79Zm286.15,0h136.78v36.78h-98.99v41.27h90.89v36.79h-90.89v45.75h102.59v36.79H5141.79V1328.79Zm176.37,0c53.87-.98,110.11-5.78,133.18,24.22,24.82,32.29,7.57,86.44-28.8,94.21q22.95,39.465,45.9,78.95c-13.23.24-35.11,2.77-45-1.8q-19.335-34.98-38.69-69.98h-27.9v71.78h-38.69V1328.79Zm182.67,0h136.78v36.78h-98.99v41.27h90.89v36.79h-90.89v45.75h102.59v36.79H5500.83V1328.79Zm177.27,0,80.99,0.9c47.89,11.08,98.29,63.59,74.68,129.19-4.72,13.13-12.61,24.93-20.69,34.99-26.47,32.97-73.93,32.89-134.98,32.3V1328.79Zm272.66,0c43.37-.8,98.96-5.42,123.27,13.46,22.22,17.25,26.45,65.99-3.59,78.05l0.9,1.8c33.88,12.86,36.98,68.16,8.99,89.71-25.93,19.98-83.57,14.95-129.57,14.36V1328.79Zm264.55,197.38h-38.69v-75.36q-32.85-60.555-65.69-121.12v-0.9h42.29q21.15,41.265,42.29,82.54l1.8-.9q20.7-40.815,41.4-81.64H6281q-32.835,60.555-65.69,121.12v76.26Zm-225.86-164.19v45.76c28.26,0.92,60.22,4.41,64.79-18.84C6060.44,1357.32,6016.9,1361.11,5989.45,1361.98Zm-1249.89,1.8c-24.46,10.92-41.08,17.59-48.59,44.86-11.11,40.25,20.23,89.23,60.29,82.54C4823.87,1479.05,4822.44,1362.12,4739.56,1363.78Zm-216.87,1.79v58.32c30.81,0.95,73.39.83,64.79-34.99C4581.47,1363.86,4554.81,1364.6,4522.69,1365.57Zm834.16,0v52.04c29.36,0.9,76.31,3.83,68.39-30.5C5419.39,1361.74,5388.62,1364.62,5356.85,1365.57Zm359.04,0v123.81c40.94,0.86,61.95-6.78,76.49-31.4,21.03-35.61-3.74-77.77-30.59-88.82C5750.35,1364.46,5732.13,1365.26,5715.89,1365.57Zm272.66,127.4c33.09,1.02,68.26,4.66,73.79-22.43,7.07-34.65-41.97-42.33-73.79-33.19v55.62Z"/>
  <path id="Color_Fill_2" data-name="Color Fill 2" class="cls-2" d="M6480.59,1246v24.25c-23.77-.2-39.34-0.13-48.46,13.97-14.81,22.9.55,83.15-5.14,116.12-2.8,16.22-9.52,20.08-18.36,29.39h1.47c8.16,8.76,14.37,13.56,16.89,28.67,5.46,32.67-9.73,95.42,5.14,117.59,9.19,13.71,25.02,13.42,48.46,13.23V1612c-51.62.34-71.42-9.03-78.56-52.92-6.05-37.14,16.59-116.95-22.03-119.79v-22.05c38.13-1.36,16.47-81.69,22.03-117.59C6408.84,1255.63,6429.01,1245.86,6480.59,1246Zm307.63,0c48.19-.3,70.85,9.13,77.83,49.24,6.15,35.32-16.06,120.64,21.29,122v22.05c-35.12,4.54-13.97,86.56-19.82,122.73-6.7,41.39-30.25,50.12-79.3,49.98v-24.25c28.3,0.22,43.62-.71,51.4-20.58,3.06-7.83,1.47-21.46,1.47-31.6-0.01-44.42-7.45-86.26,18.35-106.57v-0.73c-35.85-13.47-8.13-95.44-19.09-135.23-5.94-21.59-23.95-22.93-52.13-22.79V1246Zm270.93,83.05c38.41-1.31,101.16,16.23,63.88,44.09-9.13-7.01-16.96-15.14-29.37-19.1-26.14-8.35-73.15-.37-63.88,31.6,5.11,17.62,25.58,18.24,42.59,24.25,30.47,10.77,63.19,18.21,70.48,52.92,2.6,12.39-2.29,25.26-5.87,32.33-23.94,47.23-110.72,40.06-138.04,1.47l1.47-1.47q6.615-8.445,13.22-16.9c12.81,10.3,23.16,21.68,42.58,25.72,27.93,5.81,70.47-8.26,61.68-36.74-9.47-30.7-69.03-31-93.98-47.04-20.14-12.95-25.16-49.55-8.81-70.55C7025.86,1335.8,7041.11,1336.36,7059.15,1329.05Zm1329.67,128.61h-41.86v-42.62h91.78v77.16c-17.28,13.21-29.96,26.64-55.06,33.08-70.95,18.19-145.28-33.31-132.16-108.04,7.91-45.06,33.1-72.94,74.89-83.78,46.03-11.94,83.19,7.27,102.05,32.34,2.83,3.75,7.08,6.66,7.35,11.02q-20.925,9.915-41.86,19.84c-2.96-7.39-9.08-11.33-15.41-15.43-34.34-22.23-71.4,5.37-77.1,38.22-6.13,35.41,25.24,68.87,60.94,62.47,11.14-2,17.91-6.63,26.44-10.29v-13.97Zm748.16-127.14c49.87-1.71,48.4,57.9,8.81,65.41-22.19,4.21-43.05-20.51-35.24-43.36C9114.86,1339.94,9125.54,1336.17,9136.98,1330.52Zm-1779,2.94h24.22v190.35h-24.22v-87.46H7247.11v87.46c-7.37-.22-19.35-1.3-24.23,1.47V1334.19h24.23v80.85h110.87v-81.58Zm112.33,0.73h24.96v191.09h-24.96V1334.19Zm113.8,0c56.31-.75,114.53-6.88,131.43,32.34,4.65,10.78,5.77,29.24,2.2,41.89-12.4,43.98-53.57,41.85-110.13,41.16v75.7h-23.5V1334.19Zm207.05,0H7931.4v43.36h-90.31v28.67h88.84v43.36h-88.84v31.6h90.31v42.63h-99.85c-11.32,0-32.07-3.04-40.39,1.47V1334.19Zm213.66,0c14.52-.23,41.94-3.76,52.13,2.21q37.08,50.7,74.16,101.42h0.73V1334.19h49.93v191.09c-8.66.18-45.4,1.93-49.2-1.47q-39.645-53.655-79.29-107.3v108.77h-48.46V1334.19Zm506.61,0h49.93v191.09h-49.93V1334.19Zm128.49,0c8.9-.18,47.51-2,51.39,1.47q38.175,50.715,76.36,101.42V1334.19h49.93v191.09c-14.19.23-40.75,3.6-50.66-2.21q-38.175-52.9-76.36-105.83h-0.74v108.04h-49.92V1334.19Zm255.5,0h140.24v43.36h-90.31v28.67h88.84v43.36h-88.84v31.6h90.31v42.63h-99.85c-11.32,0-32.06-3.04-40.39,1.47V1334.19Zm241.56,1.47c-6.95,3.9-14.48,7.15-18.35,13.97-10.68,18.77,7.11,45.97,29.36,41.15C9181.1,1383.61,9179.59,1334.01,9136.98,1335.66Zm-6.61,8.82c11.08-.51,23.46-1.21,27.17,5.88,2.62,7.93-.57,15.58-7.34,16.91q4.77,7.71,9.54,15.43v0.73h-8.07q-4.785-7.71-9.55-15.43h-6.61v15.43h-5.14v-38.95Zm6.61,5.15v13.23c8.51,0.36,10.69-.8,14.69-4.41-0.25-1.96-.49-3.92-0.74-5.88l-1.47-2.94h-12.48Zm-1527.9,5.14v72.76c40.49,0.78,91.9,5.25,88.1-37.48C7693.61,1349.86,7653.08,1354,7609.08,1354.77Z"/>
  <path id="Gear" class="cls-3" d="M6614.21,1301.12c13.02-.2,35.48-3.15,45.53,1.47q2.565,16.9,5.14,33.81c2.63,3.49,10.18,5.96,15.41,6.61q12.48-9.555,24.97-19.11c2.2,0.25,4.4.49,6.61,0.74,5.84,2.67,32.3,27.16,29.36,36.75q-9.165,11.745-18.35,23.51c12.79,27.14,16.99,10.43,40.38,21.32,2.09,14.37,2.85,40.47-3.67,49.24q-15.42,1.83-30.84,3.67-3.3,7.725-6.61,15.44,9.555,11.385,19.09,22.78v6.61c-10.52,9.16-17.59,29.78-35.24,30.87q-12.84-9.915-25.7-19.84c-4.7,2.29-8.97,4.41-15.41,5.14-1.26,11.97-1.61,27.95-6.61,36.75-11.07,2.21-37.84,3.17-46.26-1.47q-2.565-17.64-5.14-35.28-7.335-2.565-14.68-5.14-12.855,9.915-25.7,19.84c-1.96-.24-3.92-0.49-5.87-0.73-5.74-2.6-33.4-28.07-30.11-37.49q9.18-11.385,18.36-22.78-3.675-8.82-7.34-17.64c-10.89-.05-26.67-1.92-33.78-6.61-0.29-14.64-2.56-37.57,3.67-46.3l31.58-4.41c1.99-4.57,7.43-13.53,5.87-16.17-3.75-8.69-12.02-16.36-18.36-22.78,0.25-2.21.49-4.41,0.74-6.62,3.88-8.72,25.2-30.73,37.44-30.87q11.745,9.555,23.5,19.11,7.335-2.565,14.68-5.14C6610,1333.06,6610.38,1307.21,6614.21,1301.12Zm14.69,85.99c-15.65,7.61-28.38,12.61-33.77,30.13-8.65,28.09,16.14,59.43,44.78,54.39C6692.59,1462.36,6690.81,1385.53,6628.9,1387.11Z"/>
  <path id="Wordmark" class="cls-4" d="M1384,707H1282c0.62-62.5-36.15-101.818-85-115-73.17-19.745-169.46,33.846-154,107,11.26,53.3,78.52,68.427,128,84,109.63,34.5,207.58,63.211,228,188,5.34,32.61-1.67,67.43-12,91-37.16,84.77-174,150.12-302,111-86.913-26.56-151.289-86.84-151-200h103c-1,66.79,32.13,100.9,85,114,83.01,20.57,193.57-19.82,175-108-11.67-55.426-74.53-72.8-126-89-106.41-33.5-210.146-61.524-230-183-5.392-32.994,2.38-66.707,12-89,36.756-85.178,173.51-155.4,297-107C1324.34,540.134,1384.57,603.207,1384,707ZM6880,942V813h328v364H7099q-13.005-31.5-26-63l-5,5q-17.505,12-35,24c-34.18,20.16-74.33,31.58-121,39-57.89,9.21-116.09-7.78-154-24-123.05-52.67-184.75-138.74-208-292-7.81-51.51,3.91-107.6,18-144,38.88-100.453,108.1-178.089,214-211,190.82-59.3,379.66,71.915,404,222-0.33.333-.67,0.667-1,1l-161,10c-13.74-67.705-114.67-120.7-201-87-67.23,26.244-105.31,82.4-118,164-16.37,105.285,64.03,187.73,136,207,79.85,21.38,175.44-28.409,188-86H6880ZM1579,502h103V786h309V502h103v675H1991V883H1682v294H1579V502Zm742,0h102v675H2321V502Zm329,0h182c43.75,0,90.1-2.289,124,8a221.107,221.107,0,0,1,123,94c83.96,134.634-6.16,284.4-124,320-53.05,16.024-137.4,7.183-202,7v246H2650V502Zm1835,0c186.21-.841,366.17-24.374,450,82a265.26,265.26,0,0,1,43,78c52.89,152.223-63.35,271.72-178,297-45.05,9.934-107.41,4.15-159,4v214H4485V502Zm666,0h483V653H5307V759h300V910H5307v117h337v150H5151V502Zm667,0h140q135.99,196.98,272,394V502h156v675H6282c-9.69,0-31.31,2.99-37-2q-135.48-195.48-271-391v393H5818V502Zm1563,0h156V823c-0.01,70.459-2.37,131.655,28,170,17.96,22.67,60.97,46.48,107,39,46.6-7.57,76.49-24.85,96-59,19.49-34.133,14-97.115,14-150V502h156V813c0.01,61.138,4.26,129.3-10,177-22.64,75.74-64.74,122.72-127,159-31.62,18.42-100.08,43.03-156,34-25.98-4.19-50.52-4.16-73-11-85.65-26.07-142.46-80.72-174-161-19.72-50.191-17-121.6-17-192V502Zm742,0h156v675H8123V502Zm351,0h103c9.68,0,31.31-2.988,37,2q134.985,195.981,270,392h1V502h156v675c-28.32.2-123.49,6.36-142-2q-133.98-195.48-268-391h-1v393H8474V502ZM2753,600V834c118.05,1.1,193.51,16.991,240-60,9.35-15.48,19.77-41.788,15-70C2987.93,585.188,2888.98,599.087,2753,600Zm1888,53V813c85.47,1.053,147.98,10.689,181-44,6.37-10.549,13.89-27.874,10-48C4816.58,641.141,4734.94,652.071,4641,653Z"/>
  <path id="Color_Fill_1" data-name="Color Fill 1" class="cls-5" d="M3750,132c371.91-6.139,609.2,206.257,718,464,58.9,139.535,72.67,343.412,22,504-26.81,84.99-67.48,159.24-115,224-107.64,146.69-262.19,243.71-473,288-38.13,8.01-117.71,16.06-162,9q-29.49-2.505-59-5-215.985,66.99-432,134,7.5-81.495,15-163,9.495-93.99,19-188l12-126c20.95-123.22,24.47-250.67,48-370,20.93-106.119,25.15-222.153,64-311,14.27-32.634,36.04-59.028,57-85,47.14-58.428,174.03-117.268,290-93,100.91,21.116,142.64,69.769,211,120,65.78,48.336,135.67,93.523,211,132q60,27,120,54c8.58,6.042,17.53,20.776,10,34-11.17,19.622-68.25,13.736-99,9-66.52-10.245-157.41,10.019-197,33-49.66,28.822-86.81,68.872-106,128-43.13,132.91,6.05,305.21,40,413,14.09,44.74,27.95,86.36,45,125q7.5,16.005,15,32c195.82-75.23,337.61-217.52,402-424,25.69-82.361,42.36-208.069,20-309-12.9-58.249-28.53-110.174-50-159-75.48-171.652-222.74-296.782-411-356-47.25-14.864-97.5-16.5-153-26l-66,1-54,4c-38.11,7.233-74.81,14.476-108,25-202.47,64.195-339.87,200.21-417,390-17.1,42.082-27.75,88.788-38,139q-2.505,28.5-5,57-1.005,30-2,60,2.505,32,5,64c10.59,55.93,20.31,106.94,39,154,11.98,30.18,25.94,60.91,42,88q10.995,16.995,22,34-7.995,62.49-16,125c-1-.67-2-1.33-3-2q-9-10.995-18-22-23.505-33.495-47-67c-36.37-58.1-64.56-124.29-86-197-34.02-115.382-30.77-287.053,3-399,67.39-223.425,209.97-389.917,412-478,52.65-22.956,109.37-39.6,172-53l70-9Zm-49,349c-26.22,10.556-49.59,9.769-72,23-81.52,48.123-156.1,184.383-88,300,22.41,38.042,55.03,67.53,93,90q22.995,11,46,22v1c-26.33,8.537-45.79,34.651-60,56-83.64,125.65-25.66,319.4,14,448q15.495,51.495,31,103c46.16,3.43,100.43,17.22,154,9q31.995-3.495,64-7l58-12c-50.92-113.62-89.51-235.89-117-374-17.47-87.8-5.79-199.179,22-264,38.89-90.714,112.75-149.169,221-171v-4c-32.11-93.106-183.86-178.236-282-209C3759.74,484.081,3734.91,480.884,3701,481Zm87,98c86.28-1.747,90.26,112.614,11,126-43.18,7.292-79.08-38.011-66-81C3741.83,594.991,3760.41,589.979,3788,579Zm23,18c-31,14.173-21.08,52.092,9,44C3844.84,634.317,3837.2,598.349,3811,597Z"/>
</svg>
