<?xml version="1.0" encoding="UTF-8" standalone="no"?>
<!DOCTYPE svg PUBLIC "-//W3C//DTD SVG 1.1//EN" "http://www.w3.org/Graphics/SVG/1.1/DTD/svg11.dtd">
<svg width="100%" height="100%" viewBox="0 0 402 74" version="1.1" xmlns="http://www.w3.org/2000/svg" xmlns:xlink="http://www.w3.org/1999/xlink" xml:space="preserve" xmlns:serif="http://www.serif.com/" style="fill-rule:evenodd;clip-rule:evenodd;stroke-linejoin:round;stroke-miterlimit:2;">
    <g id="Welcome">
        <g id="Shape" transform="matrix(1,0,0,1,247,54)">
            <path d="M16.333,10C16.333,9.378 16.1,8.833 15.633,8.367C15.167,7.9 14.622,7.667 14,7.667C13.378,7.667 12.833,7.9 12.367,8.367C11.9,8.833 11.667,9.378 11.667,10C11.667,10.622 11.9,11.166 12.367,11.633C12.833,12.1 13.378,12.333 14,12.333C14.622,12.333 15.167,12.1 15.633,11.633C16.1,11.166 16.333,10.622 16.333,10ZM20.999,8.989L20.999,11.011C20.999,11.089 20.999,11.166 20.922,11.245L20.766,11.4L19.056,11.633C18.977,11.945 18.822,12.256 18.666,12.411C18.9,12.722 19.211,13.111 19.677,13.656C19.755,13.734 19.755,13.811 19.755,13.889C19.755,13.967 19.755,14.044 19.677,14.122C19.522,14.356 19.211,14.667 18.822,15.133C18.433,15.6 18.122,15.755 17.966,15.755C17.889,15.755 17.811,15.755 17.733,15.677L16.411,14.666C16.178,14.823 15.867,14.9 15.555,14.978C15.477,15.833 15.4,16.378 15.322,16.689C15.322,16.922 15.167,17 15.011,17L12.989,17C12.911,17 12.833,17 12.756,16.922C12.677,16.844 12.677,16.766 12.677,16.689L12.445,14.978C12.133,14.9 11.9,14.744 11.589,14.667L10.267,15.678C10.189,15.756 10.111,15.756 10.034,15.756C9.956,15.756 9.878,15.756 9.8,15.678C9.023,14.978 8.556,14.511 8.323,14.122C8.245,14.044 8.245,13.967 8.245,13.889C8.245,13.811 8.245,13.733 8.323,13.656C8.4,13.5 8.556,13.344 8.789,13.033C9.023,12.722 9.178,12.567 9.256,12.411C9.1,12.1 8.944,11.789 8.867,11.478L7.234,11.245C7.156,11.245 7.078,11.166 7.078,11.166C7.078,11.166 7,11.089 7,11.011L7,8.989C7,8.911 7,8.833 7.078,8.755L7.234,8.6L8.944,8.367C9.023,8.055 9.178,7.822 9.334,7.511C9.1,7.2 8.789,6.733 8.323,6.267C8.245,6.189 8.245,6.111 8.245,6.033C8.245,5.956 8.245,5.878 8.323,5.8C8.478,5.567 8.789,5.256 9.256,4.789C9.723,4.322 9.956,4.167 10.111,4.167C10.19,4.167 10.267,4.167 10.345,4.245L11.589,5.256C11.822,5.1 12.133,5.022 12.445,4.945C12.523,4.089 12.6,3.545 12.678,3.234C12.756,3.078 12.833,3 12.989,3L15.011,3C15.089,3 15.167,3 15.244,3.078C15.323,3.156 15.323,3.234 15.323,3.311L15.555,5.022C15.867,5.1 16.1,5.256 16.411,5.333L17.733,4.322C17.811,4.244 17.889,4.244 17.966,4.244C18.044,4.244 18.122,4.244 18.2,4.322C18.977,5.022 19.522,5.567 19.677,5.878C19.755,5.956 19.755,5.956 19.755,6.111C19.755,6.189 19.755,6.267 19.677,6.344C19.6,6.5 19.444,6.656 19.211,6.967C18.977,7.278 18.822,7.433 18.744,7.589C18.9,7.9 19.056,8.211 19.133,8.444L20.766,8.678C20.844,8.678 20.922,8.756 20.922,8.756C20.922,8.756 21,8.911 21,8.989L20.999,8.989Z" style="fill:rgb(69,170,242);fill-rule:nonzero;"/>
        </g>
        <g id="Shape1" serif:id="Shape" transform="matrix(1,0,0,1,247,54)">
            <path d="M0,10.539L0,9.385C0.366,9.394 0.712,9.221 0.924,8.923C1.155,8.615 1.233,8.231 1.233,7.769L1.233,3.077C1.233,2.155 1.541,1.385 2.08,0.847C2.696,0.231 3.313,0 4.084,0L5.47,0L5.47,1.308L4.084,1.308C3.698,1.308 3.313,1.461 3.005,1.846C2.697,2.231 2.543,2.615 2.543,3.154L2.543,8C2.543,9.077 2.157,9.692 1.464,10C2.157,10.308 2.543,11 2.543,12L2.543,16.923C2.543,17.461 2.697,17.923 3.005,18.231C3.313,18.615 3.698,18.769 4.084,18.769L5.47,18.769L5.47,20L4.084,20C3.313,20 2.62,19.692 2.081,19.154C1.464,18.615 1.233,17.846 1.233,16.923L1.233,12.154C1.233,11.692 1.156,11.308 0.925,11C0.713,10.702 0.366,10.529 0,10.539ZM22.341,18.692L23.728,18.692C24.113,18.692 24.498,18.539 24.807,18.154C25.115,17.769 25.269,17.385 25.269,16.846L25.269,12C25.269,10.923 25.654,10.231 26.348,10C25.654,9.692 25.268,9 25.268,8L25.268,3.154C25.268,2.615 25.115,2.154 24.806,1.846C24.498,1.461 24.113,1.308 23.728,1.308L22.341,1.308L22.341,0L23.728,0C24.498,0 25.192,0.308 25.731,0.846C26.271,1.385 26.579,2.154 26.579,3.077L26.579,7.769C26.579,8.231 26.656,8.615 26.887,8.923C27.118,9.231 27.426,9.385 27.734,9.385L27.734,10.539C27.426,10.539 27.195,10.692 26.964,11C26.733,11.308 26.656,11.692 26.656,12.154L26.656,16.923C26.656,17.846 26.348,18.539 25.808,19.154C25.192,19.692 24.498,20 23.728,20L22.341,20L22.341,18.692ZM33.897,13.692L34.668,12.692C35.053,13.154 35.515,13.461 36.054,13.77C36.594,14.077 37.21,14.154 37.903,14.154C38.366,14.154 38.751,14.077 39.059,14C39.367,13.923 39.675,13.769 39.829,13.539C40.06,13.461 40.214,13.231 40.292,13.077C40.369,12.846 40.446,12.692 40.446,12.461C40.446,12.154 40.368,11.923 40.214,11.692C40.075,11.476 39.891,11.293 39.675,11.154C39.444,11 39.136,10.923 38.828,10.769C38.519,10.615 38.211,10.539 37.826,10.461C37.441,10.385 37.133,10.308 36.825,10.154C36.479,10.06 36.143,9.931 35.823,9.769C35.515,9.615 35.207,9.461 34.976,9.231C34.745,9 34.513,8.769 34.437,8.461C34.283,8.154 34.205,7.769 34.205,7.385C34.205,6.539 34.513,5.846 35.207,5.307C35.9,4.769 36.748,4.539 37.749,4.539C39.29,4.539 40.522,5 41.447,6L40.677,6.923C39.906,6.077 38.905,5.692 37.672,5.692C37.056,5.692 36.516,5.846 36.131,6.154C35.746,6.461 35.515,6.846 35.515,7.308C35.515,7.539 35.592,7.769 35.746,8C35.9,8.231 36.054,8.308 36.286,8.461C36.516,8.615 36.825,8.692 37.133,8.769C37.441,8.846 37.749,8.923 38.134,9.077C38.519,9.231 38.828,9.385 39.136,9.461C39.482,9.556 39.817,9.685 40.137,9.846C40.446,10 40.754,10.154 40.985,10.385C41.216,10.615 41.447,10.846 41.524,11.154C41.602,11.461 41.755,11.846 41.755,12.231C41.755,12.539 41.678,12.846 41.601,13.154C41.524,13.461 41.37,13.692 41.216,14L40.522,14.692C40.209,14.936 39.837,15.095 39.444,15.154C38.905,15.308 38.443,15.385 37.903,15.385C36.208,15.385 34.898,14.846 33.897,13.692ZM46.146,15.231L46.146,4.846L47.456,4.846L47.456,9.231L53.543,9.231L53.543,4.769L54.852,4.769L54.852,15.154L53.542,15.154L53.542,10.385L47.456,10.385L47.456,15.154L46.146,15.154L46.146,15.231ZM59.706,15.231L59.706,4.846L61.015,4.846L61.015,15.231L59.706,15.231ZM65.945,15.231L65.945,4.846L70.106,4.846C71.107,4.846 71.878,5.154 72.494,5.769C73.11,6.385 73.342,7.154 73.342,8C73.343,8.822 73.041,9.616 72.494,10.231C71.878,10.769 71.107,11.077 70.106,11.077L67.178,11.077L67.178,15.231L65.945,15.231ZM67.255,9.923L69.951,9.923C70.568,9.923 71.03,9.769 71.492,9.385C71.954,9 72.109,8.539 72.109,7.923C72.109,7.308 71.878,6.846 71.492,6.461C71.107,6.077 70.568,5.923 69.951,5.923L67.255,5.923L67.255,9.923ZM77.27,15.231L77.27,4.846L84.897,4.846L84.897,7.154L79.967,7.154L79.967,8.769L84.82,8.769L84.82,11.077L79.967,11.077L79.967,12.846L84.897,12.846L84.897,15.154L77.27,15.154L77.27,15.231ZM88.98,15.231L88.98,4.846L91.677,4.846L95.914,10.539L95.914,4.846L98.61,4.846L98.61,15.231L95.991,15.231L91.6,9.231L91.6,15.231L88.98,15.231ZM102.462,10C102.462,9.231 102.616,8.461 102.924,7.769C103.233,7.077 103.618,6.539 104.157,6.077C104.697,5.615 105.236,5.231 105.929,5C106.622,4.769 107.316,4.615 108.163,4.615C108.703,4.615 109.242,4.693 109.704,4.846C110.166,5 110.628,5.154 110.937,5.385C111.322,5.615 111.63,5.923 111.861,6.154L112.554,7.077L110.32,8.231C110.094,7.851 109.776,7.534 109.396,7.308C109.01,7.077 108.548,6.923 108.086,6.923C107.239,6.923 106.545,7.231 106.006,7.769C105.467,8.308 105.159,9.077 105.159,9.923C105.159,10.769 105.467,11.461 106.006,12.077C106.545,12.615 107.239,12.923 108.086,12.923C108.471,12.923 108.78,12.846 109.165,12.769C109.55,12.615 109.781,12.461 110.012,12.308L110.012,11.539L107.701,11.539L107.701,9.231L112.709,9.231L112.709,13.385C111.476,14.769 109.935,15.385 108.086,15.385C107.316,15.385 106.545,15.231 105.852,15C105.187,14.781 104.58,14.413 104.08,13.923C103.541,13.461 103.156,12.923 102.848,12.231C102.616,11.539 102.462,10.769 102.462,10ZM116.715,15.231L116.715,4.846L119.411,4.846L119.411,15.231L116.715,15.231ZM123.725,15.231L123.725,4.846L126.499,4.846L130.736,10.539L130.736,4.846L133.432,4.846L133.432,15.231L130.813,15.231L126.422,9.231L126.422,15.231L123.725,15.231ZM137.747,15.231L137.747,4.846L145.373,4.846L145.373,7.154L140.443,7.154L140.443,8.769L145.296,8.769L145.296,11.077L140.443,11.077L140.443,12.846L145.373,12.846L145.373,15.154L137.747,15.154L137.747,15.231ZM149.457,6.385C149.457,5.923 149.61,5.462 149.995,5.154C150.381,4.846 150.766,4.615 151.228,4.615C151.537,4.615 151.845,4.693 152.153,4.846C152.461,5 152.615,5.231 152.769,5.461C152.923,5.692 153,6 153,6.385C153,6.846 152.846,7.307 152.461,7.615C152.075,7.923 151.69,8.154 151.228,8.154C150.766,8.154 150.304,8 149.995,7.615C149.687,7.231 149.457,6.846 149.457,6.385ZM149.765,6.385C149.765,6.769 149.919,7.154 150.227,7.462C150.535,7.769 150.92,7.923 151.305,7.923C151.69,7.923 152.075,7.769 152.384,7.461C152.676,7.179 152.843,6.791 152.846,6.385C152.846,5.923 152.692,5.615 152.384,5.307C152.1,5.016 151.712,4.85 151.305,4.846C150.843,4.846 150.535,5 150.227,5.308C149.919,5.539 149.765,5.923 149.765,6.385L149.765,6.385ZM150.612,7.461L150.612,5.385L151.46,5.385C151.613,5.385 151.768,5.462 151.922,5.539C152.075,5.615 152.075,5.769 152.075,6C152.075,6.231 151.998,6.385 151.922,6.461C151.845,6.539 151.69,6.615 151.613,6.615L152.153,7.461L151.768,7.461L151.228,6.615L150.843,6.615L150.843,7.461L150.612,7.461ZM150.843,6.385L151.382,6.385C151.46,6.385 151.537,6.385 151.613,6.307C151.768,6.154 151.768,6.077 151.768,6C151.768,5.923 151.768,5.769 151.69,5.692C151.613,5.615 151.537,5.615 151.46,5.615L150.92,5.615L150.92,6.385L150.843,6.385Z" style="fill:rgb(22,41,72);fill-rule:nonzero;"/>
        </g>
        <path id="Fill-1" d="M29.599,14.32C33.035,15.117 41.102,19.575 41.525,23.061C41.525,23.061 25.342,24.68 33.981,49.036C35.486,53.599 34.769,51.853 36.446,55.545C34.354,56.08 32.163,56.365 29.907,56.365C28.334,56.365 26.793,56.224 25.294,55.959C24.215,52.442 23.112,48.931 22.305,45.326C19.865,34.119 25.915,31.504 25.915,31.504C13.591,26.672 20.612,11.605 29.599,14.32M29.907,0.018C13.416,0.018 0,13.439 0,29.935C0,37.355 2.716,44.152 7.204,49.386L7.814,44.414C5.079,40.252 3.486,35.276 3.486,29.935C3.486,15.361 15.338,3.504 29.907,3.504C44.476,3.504 56.329,15.361 56.329,29.935C56.329,41.35 49.056,51.098 38.902,54.787C37.189,51.021 37.8,52.68 36.346,47.965C28.828,23.734 43.666,24.904 50.214,25.552C50.836,25.602 52.081,24.182 50.114,23.385C44.736,21.243 40.098,18.374 35.45,14.669C28.678,8.169 16.305,11.008 14.114,21.218C13.367,24.705 12.794,28.216 12.272,31.728C11.525,36.958 10.877,42.188 10.33,47.418C9.732,53.27 9.11,59.123 8.612,65L26.087,59.607C27.338,59.768 28.613,59.852 29.907,59.852C46.398,59.852 59.815,46.431 59.815,29.935C59.815,13.439 46.398,0.018 29.907,0.018"/>
        <path id="Fill-4" d="M31.289,18.686C32.059,18.686 32.557,19.6 31.899,20.314C31.114,20.796 30.373,20.263 30.373,19.593C30.373,19.078 30.794,18.686 31.289,18.686M30.5,23C31.886,23 33,21.873 33,20.5C33,19.127 31.886,18 30.5,18C29.114,18 28,19.127 28,20.5C28,21.873 29.114,23 30.5,23"/>
        <g transform="matrix(1,0,0,1,78,42)">
            <g transform="matrix(43,0,0,43,0,0)">
                <path d="M0.04,-0.46C0.04,-0.483 0.045,-0.505 0.055,-0.526C0.065,-0.547 0.079,-0.565 0.098,-0.582C0.117,-0.598 0.139,-0.611 0.165,-0.62C0.19,-0.63 0.219,-0.635 0.25,-0.635C0.28,-0.635 0.307,-0.63 0.333,-0.62C0.358,-0.61 0.379,-0.596 0.397,-0.578C0.416,-0.561 0.43,-0.54 0.44,-0.516C0.45,-0.493 0.455,-0.467 0.455,-0.44L0.36,-0.44C0.36,-0.472 0.35,-0.499 0.329,-0.519C0.309,-0.54 0.283,-0.55 0.25,-0.55C0.233,-0.55 0.217,-0.547 0.203,-0.542C0.188,-0.538 0.176,-0.531 0.166,-0.522C0.156,-0.513 0.148,-0.503 0.143,-0.493C0.137,-0.482 0.135,-0.471 0.135,-0.46C0.135,-0.438 0.143,-0.421 0.16,-0.409C0.177,-0.397 0.197,-0.387 0.222,-0.378C0.247,-0.37 0.273,-0.361 0.302,-0.353C0.332,-0.344 0.358,-0.333 0.383,-0.318C0.408,-0.304 0.428,-0.285 0.445,-0.262C0.462,-0.239 0.47,-0.208 0.47,-0.17C0.47,-0.147 0.465,-0.125 0.455,-0.104C0.444,-0.084 0.429,-0.065 0.41,-0.049C0.391,-0.032 0.368,-0.019 0.341,-0.01C0.314,0 0.284,0.005 0.25,0.005C0.216,0.005 0.186,0 0.16,-0.01C0.133,-0.019 0.111,-0.032 0.092,-0.05C0.073,-0.067 0.059,-0.087 0.05,-0.111C0.04,-0.135 0.035,-0.161 0.035,-0.19L0.13,-0.19C0.13,-0.154 0.14,-0.127 0.16,-0.108C0.18,-0.09 0.21,-0.08 0.25,-0.08C0.293,-0.08 0.324,-0.089 0.344,-0.106C0.365,-0.123 0.375,-0.145 0.375,-0.17C0.375,-0.193 0.367,-0.212 0.35,-0.225C0.333,-0.238 0.313,-0.25 0.288,-0.259C0.263,-0.267 0.236,-0.276 0.208,-0.285C0.179,-0.294 0.152,-0.305 0.127,-0.318C0.102,-0.332 0.082,-0.35 0.065,-0.372C0.048,-0.394 0.04,-0.423 0.04,-0.46Z" style="fill:white;fill-rule:nonzero;"/>
            </g>
            <g transform="matrix(43,0,0,43,24.2159,0)">
                <path d="M0.555,-0.63L0.555,0L0.46,0L0.46,-0.275L0.17,-0.275L0.17,0L0.075,0L0.075,-0.63L0.17,-0.63L0.17,-0.365L0.46,-0.365L0.46,-0.63L0.555,-0.63Z" style="fill:white;fill-rule:nonzero;"/>
            </g>
            <g transform="matrix(43,0,0,43,54.0168,0)">
                <rect x="0.075" y="-0.63" width="0.095" height="0.63" style="fill:white;fill-rule:nonzero;"/>
            </g>
            <g transform="matrix(43,0,0,43,67.2518,0)">
                <path d="M0.305,-0.63C0.333,-0.63 0.358,-0.625 0.383,-0.614C0.407,-0.603 0.428,-0.589 0.446,-0.571C0.464,-0.553 0.478,-0.532 0.489,-0.508C0.5,-0.483 0.505,-0.458 0.505,-0.43C0.505,-0.403 0.5,-0.377 0.489,-0.353C0.478,-0.328 0.464,-0.307 0.446,-0.289C0.428,-0.271 0.407,-0.257 0.383,-0.246C0.358,-0.235 0.333,-0.23 0.305,-0.23L0.17,-0.23L0.17,0L0.075,0L0.075,-0.63L0.305,-0.63ZM0.305,-0.32C0.319,-0.32 0.332,-0.323 0.345,-0.328C0.358,-0.334 0.369,-0.342 0.378,-0.352C0.388,-0.362 0.396,-0.374 0.402,-0.387C0.407,-0.401 0.41,-0.415 0.41,-0.43C0.41,-0.445 0.407,-0.459 0.402,-0.472C0.396,-0.486 0.388,-0.497 0.378,-0.507C0.369,-0.517 0.358,-0.525 0.345,-0.531C0.332,-0.537 0.319,-0.54 0.305,-0.54L0.17,-0.54L0.17,-0.32L0.305,-0.32Z" style="fill:white;fill-rule:nonzero;"/>
            </g>
        </g>
        <g transform="matrix(1,0,0,1,185.569,42)">
            <g transform="matrix(43,0,0,43,0,0)">
                <path d="M0.305,-0.63C0.338,-0.63 0.368,-0.624 0.395,-0.614C0.422,-0.603 0.446,-0.587 0.466,-0.568C0.486,-0.548 0.502,-0.525 0.513,-0.499C0.524,-0.473 0.53,-0.445 0.53,-0.415C0.53,-0.385 0.524,-0.357 0.513,-0.331C0.502,-0.305 0.486,-0.282 0.466,-0.263C0.446,-0.243 0.422,-0.228 0.395,-0.217C0.368,-0.206 0.338,-0.2 0.305,-0.2L0.205,-0.2L0.205,0L0.06,0L0.06,-0.63L0.305,-0.63ZM0.305,-0.34C0.328,-0.34 0.347,-0.347 0.362,-0.363C0.377,-0.378 0.385,-0.395 0.385,-0.415C0.385,-0.435 0.377,-0.452 0.362,-0.468C0.347,-0.483 0.328,-0.49 0.305,-0.49L0.205,-0.49L0.205,-0.34L0.305,-0.34Z" style="fill:white;fill-rule:nonzero;"/>
            </g>
            <g transform="matrix(43,0,0,43,26.7959,0)">
                <path d="M0.06,-0.63L0.51,-0.63L0.51,-0.49L0.205,-0.49L0.205,-0.39L0.485,-0.39L0.485,-0.25L0.205,-0.25L0.205,-0.14L0.52,-0.14L0.52,0L0.06,0L0.06,-0.63Z" style="fill:white;fill-rule:nonzero;"/>
            </g>
            <g transform="matrix(43,0,0,43,53.5919,0)">
                <path d="M0.59,-0.63L0.59,0L0.46,0L0.205,-0.37L0.205,0L0.06,0L0.06,-0.63L0.19,-0.63L0.445,-0.26L0.445,-0.63L0.59,-0.63Z" style="fill:white;fill-rule:nonzero;"/>
            </g>
            <g transform="matrix(43,0,0,43,84.2578,0)">
                <path d="M0.34,-0.34L0.645,-0.34L0.645,0L0.545,0L0.52,-0.06C0.505,-0.047 0.489,-0.036 0.471,-0.027C0.456,-0.019 0.437,-0.012 0.415,-0.005C0.393,0.002 0.368,0.005 0.34,0.005C0.297,0.005 0.257,-0.003 0.22,-0.02C0.182,-0.036 0.149,-0.058 0.121,-0.088C0.093,-0.117 0.071,-0.15 0.055,-0.189C0.038,-0.228 0.03,-0.27 0.03,-0.315C0.03,-0.36 0.038,-0.401 0.055,-0.441C0.071,-0.48 0.093,-0.514 0.121,-0.543C0.149,-0.572 0.182,-0.594 0.22,-0.611C0.257,-0.627 0.297,-0.635 0.34,-0.635C0.377,-0.635 0.412,-0.629 0.444,-0.617C0.475,-0.605 0.503,-0.589 0.528,-0.569C0.552,-0.548 0.572,-0.525 0.589,-0.498C0.606,-0.471 0.618,-0.444 0.625,-0.415L0.475,-0.405C0.471,-0.416 0.465,-0.427 0.458,-0.438C0.451,-0.449 0.441,-0.458 0.43,-0.467C0.419,-0.476 0.406,-0.483 0.391,-0.488C0.376,-0.493 0.359,-0.495 0.34,-0.495C0.317,-0.495 0.296,-0.491 0.276,-0.482C0.256,-0.472 0.239,-0.46 0.224,-0.444C0.209,-0.428 0.197,-0.409 0.188,-0.387C0.179,-0.365 0.175,-0.341 0.175,-0.315C0.175,-0.289 0.179,-0.265 0.188,-0.243C0.197,-0.221 0.209,-0.202 0.224,-0.186C0.239,-0.17 0.256,-0.158 0.276,-0.149C0.296,-0.139 0.317,-0.135 0.34,-0.135C0.36,-0.135 0.378,-0.138 0.394,-0.143C0.409,-0.148 0.423,-0.154 0.435,-0.163C0.446,-0.171 0.456,-0.18 0.463,-0.19C0.47,-0.2 0.476,-0.21 0.48,-0.22L0.34,-0.22L0.34,-0.34Z" style="fill:white;fill-rule:nonzero;"/>
            </g>
            <g transform="matrix(43,0,0,43,116.859,0)">
                <path d="M0.195,-0.63L0.195,-0.255C0.195,-0.217 0.205,-0.188 0.226,-0.167C0.247,-0.146 0.275,-0.135 0.31,-0.135C0.345,-0.135 0.373,-0.146 0.394,-0.167C0.415,-0.188 0.425,-0.217 0.425,-0.255L0.425,-0.63L0.57,-0.63L0.57,-0.255C0.57,-0.216 0.564,-0.181 0.551,-0.149C0.538,-0.117 0.521,-0.09 0.498,-0.067C0.475,-0.044 0.448,-0.027 0.416,-0.014C0.384,-0.001 0.349,0.005 0.31,0.005C0.271,0.005 0.236,-0.001 0.204,-0.014C0.172,-0.027 0.145,-0.044 0.122,-0.067C0.099,-0.09 0.082,-0.117 0.069,-0.149C0.056,-0.181 0.05,-0.216 0.05,-0.255L0.05,-0.63L0.195,-0.63Z" style="fill:white;fill-rule:nonzero;"/>
            </g>
            <g transform="matrix(43,0,0,43,146.235,0)">
                <rect x="0.06" y="-0.63" width="0.145" height="0.63" style="fill:white;fill-rule:nonzero;"/>
            </g>
            <g transform="matrix(43,0,0,43,160.346,0)">
                <path d="M0.59,-0.63L0.59,0L0.46,0L0.205,-0.37L0.205,0L0.06,0L0.06,-0.63L0.19,-0.63L0.445,-0.26L0.445,-0.63L0.59,-0.63Z" style="fill:white;fill-rule:nonzero;"/>
            </g>
        </g>
        <g transform="matrix(1,0,0,1,135,69)">
            <g transform="matrix(14,0,0,14,0,0)">
                <path d="M0.3,-0.63C0.33,-0.63 0.358,-0.624 0.384,-0.614C0.41,-0.603 0.433,-0.588 0.453,-0.569C0.472,-0.55 0.488,-0.527 0.499,-0.502C0.509,-0.476 0.515,-0.449 0.515,-0.42C0.515,-0.391 0.509,-0.364 0.499,-0.339C0.488,-0.313 0.472,-0.291 0.453,-0.272C0.433,-0.253 0.41,-0.238 0.384,-0.227C0.358,-0.216 0.33,-0.21 0.3,-0.21L0.185,-0.21L0.185,0L0.065,0L0.065,-0.63L0.3,-0.63ZM0.3,-0.325C0.313,-0.325 0.325,-0.328 0.336,-0.333C0.347,-0.338 0.357,-0.345 0.366,-0.354C0.375,-0.363 0.382,-0.373 0.387,-0.384C0.392,-0.395 0.395,-0.407 0.395,-0.42C0.395,-0.433 0.392,-0.445 0.387,-0.456C0.382,-0.467 0.375,-0.477 0.366,-0.486C0.357,-0.495 0.347,-0.502 0.336,-0.507C0.325,-0.512 0.313,-0.515 0.3,-0.515L0.185,-0.515L0.185,-0.325L0.3,-0.325Z" style="fill:rgb(75,140,143);fill-opacity:0.57;fill-rule:nonzero;"/>
            </g>
            <g transform="matrix(14,0,0,14,7.9179,0)">
                <path d="M0.15,-0.315C0.15,-0.285 0.155,-0.258 0.165,-0.233C0.175,-0.208 0.188,-0.186 0.205,-0.168C0.222,-0.149 0.241,-0.135 0.264,-0.125C0.286,-0.115 0.31,-0.11 0.335,-0.11C0.36,-0.11 0.383,-0.115 0.406,-0.125C0.429,-0.135 0.448,-0.149 0.465,-0.168C0.482,-0.186 0.495,-0.208 0.505,-0.233C0.515,-0.258 0.52,-0.285 0.52,-0.315C0.52,-0.345 0.515,-0.373 0.505,-0.398C0.495,-0.423 0.482,-0.444 0.465,-0.463C0.448,-0.481 0.429,-0.495 0.406,-0.505C0.383,-0.515 0.36,-0.52 0.335,-0.52C0.31,-0.52 0.286,-0.515 0.264,-0.505C0.241,-0.495 0.222,-0.481 0.205,-0.463C0.188,-0.444 0.175,-0.423 0.165,-0.398C0.155,-0.373 0.15,-0.345 0.15,-0.315ZM0.64,-0.315C0.64,-0.27 0.632,-0.228 0.616,-0.189C0.599,-0.15 0.577,-0.117 0.55,-0.088C0.522,-0.058 0.49,-0.036 0.453,-0.02C0.416,-0.003 0.376,0.005 0.335,0.005C0.294,0.005 0.255,-0.003 0.218,-0.02C0.181,-0.036 0.148,-0.058 0.121,-0.088C0.093,-0.117 0.071,-0.15 0.055,-0.189C0.038,-0.228 0.03,-0.27 0.03,-0.315C0.03,-0.36 0.038,-0.401 0.055,-0.441C0.071,-0.48 0.093,-0.514 0.121,-0.543C0.148,-0.572 0.181,-0.594 0.218,-0.611C0.255,-0.627 0.294,-0.635 0.335,-0.635C0.376,-0.635 0.416,-0.627 0.453,-0.611C0.49,-0.594 0.522,-0.572 0.55,-0.543C0.577,-0.514 0.599,-0.48 0.616,-0.441C0.632,-0.401 0.64,-0.36 0.64,-0.315Z" style="fill:rgb(75,140,143);fill-opacity:0.57;fill-rule:nonzero;"/>
            </g>
            <g transform="matrix(14,0,0,14,17.4458,0)">
                <path d="M0.29,0L0.205,0L0.005,-0.63L0.125,-0.63L0.25,-0.22L0.38,-0.63L0.45,-0.63L0.58,-0.22L0.705,-0.63L0.825,-0.63L0.625,0L0.54,0L0.415,-0.395L0.29,0Z" style="fill:rgb(75,140,143);fill-opacity:0.57;fill-rule:nonzero;"/>
            </g>
            <g transform="matrix(14,0,0,14,29.3537,0)">
                <path d="M0.51,-0.115L0.51,0L0.065,0L0.065,-0.63L0.5,-0.63L0.5,-0.515L0.185,-0.515L0.185,-0.38L0.475,-0.38L0.475,-0.265L0.185,-0.265L0.185,-0.115L0.51,-0.115Z" style="fill:rgb(75,140,143);fill-opacity:0.57;fill-rule:nonzero;"/>
            </g>
            <g transform="matrix(14,0,0,14,37.2716,0)">
                <path d="M0.275,-0.23L0.185,-0.23L0.185,0L0.065,0L0.065,-0.63L0.315,-0.63C0.345,-0.63 0.373,-0.625 0.399,-0.615C0.424,-0.604 0.446,-0.59 0.465,-0.572C0.484,-0.554 0.498,-0.533 0.509,-0.51C0.52,-0.486 0.525,-0.461 0.525,-0.435C0.525,-0.4 0.518,-0.37 0.504,-0.347C0.49,-0.324 0.474,-0.305 0.457,-0.29C0.437,-0.273 0.415,-0.259 0.39,-0.25L0.54,0L0.405,0L0.275,-0.23ZM0.185,-0.345L0.315,-0.345C0.34,-0.345 0.362,-0.354 0.379,-0.371C0.396,-0.388 0.405,-0.407 0.405,-0.43C0.405,-0.453 0.396,-0.472 0.379,-0.49C0.362,-0.507 0.34,-0.515 0.315,-0.515L0.185,-0.515L0.185,-0.345Z" style="fill:rgb(75,140,143);fill-opacity:0.57;fill-rule:nonzero;"/>
            </g>
            <g transform="matrix(14,0,0,14,45.3995,0)">
                <path d="M0.51,-0.115L0.51,0L0.065,0L0.065,-0.63L0.5,-0.63L0.5,-0.515L0.185,-0.515L0.185,-0.38L0.475,-0.38L0.475,-0.265L0.185,-0.265L0.185,-0.115L0.51,-0.115Z" style="fill:rgb(75,140,143);fill-opacity:0.57;fill-rule:nonzero;"/>
            </g>
            <g transform="matrix(14,0,0,14,53.3174,0)">
                <path d="M0.265,-0.115C0.29,-0.115 0.314,-0.12 0.337,-0.131C0.36,-0.142 0.38,-0.156 0.398,-0.174C0.415,-0.192 0.429,-0.213 0.44,-0.238C0.45,-0.262 0.455,-0.288 0.455,-0.315C0.455,-0.342 0.45,-0.368 0.44,-0.393C0.429,-0.417 0.415,-0.438 0.398,-0.456C0.38,-0.474 0.36,-0.488 0.337,-0.499C0.314,-0.51 0.29,-0.515 0.265,-0.515L0.185,-0.515L0.185,-0.115L0.265,-0.115ZM0.065,0L0.065,-0.63L0.265,-0.63C0.306,-0.63 0.346,-0.622 0.383,-0.605C0.42,-0.588 0.453,-0.565 0.482,-0.536C0.511,-0.507 0.533,-0.474 0.55,-0.436C0.567,-0.398 0.575,-0.358 0.575,-0.315C0.575,-0.272 0.567,-0.232 0.55,-0.194C0.533,-0.156 0.511,-0.123 0.482,-0.094C0.453,-0.065 0.42,-0.043 0.383,-0.026C0.346,-0.009 0.306,0 0.265,0L0.065,0Z" style="fill:rgb(75,140,143);fill-opacity:0.57;fill-rule:nonzero;"/>
            </g>
            <g transform="matrix(14,0,0,14,65.5132,0)">
                <path d="M0.44,-0.335C0.459,-0.326 0.475,-0.315 0.49,-0.301C0.503,-0.289 0.514,-0.273 0.525,-0.253C0.535,-0.233 0.54,-0.209 0.54,-0.18C0.54,-0.156 0.535,-0.133 0.525,-0.112C0.515,-0.09 0.501,-0.071 0.483,-0.055C0.464,-0.038 0.443,-0.025 0.418,-0.015C0.393,-0.005 0.365,0 0.335,0L0.065,0L0.065,-0.63L0.325,-0.63C0.352,-0.63 0.378,-0.625 0.401,-0.616C0.424,-0.607 0.444,-0.594 0.462,-0.578C0.478,-0.562 0.492,-0.544 0.501,-0.523C0.51,-0.501 0.515,-0.479 0.515,-0.455C0.515,-0.434 0.511,-0.415 0.503,-0.4C0.495,-0.385 0.486,-0.372 0.477,-0.363C0.466,-0.352 0.453,-0.342 0.44,-0.335ZM0.185,-0.375L0.315,-0.375C0.338,-0.375 0.357,-0.383 0.372,-0.398C0.387,-0.413 0.395,-0.43 0.395,-0.45C0.395,-0.47 0.387,-0.488 0.372,-0.503C0.357,-0.518 0.338,-0.525 0.315,-0.525L0.185,-0.525L0.185,-0.375ZM0.325,-0.105C0.353,-0.105 0.376,-0.114 0.394,-0.131C0.411,-0.148 0.42,-0.17 0.42,-0.195C0.42,-0.22 0.411,-0.242 0.394,-0.259C0.376,-0.276 0.353,-0.285 0.325,-0.285L0.185,-0.285L0.185,-0.105L0.325,-0.105Z" style="fill:rgb(75,140,143);fill-opacity:0.57;fill-rule:nonzero;"/>
            </g>
            <g transform="matrix(14,0,0,14,73.5011,0)">
                <path d="M0.415,-0.63L0.545,-0.63L0.335,-0.24L0.335,0L0.215,0L0.215,-0.24L0.005,-0.63L0.135,-0.63L0.275,-0.36L0.415,-0.63Z" style="fill:rgb(75,140,143);fill-opacity:0.57;fill-rule:nonzero;"/>
            </g>
        </g>
    </g>
</svg>
