<?xml version="1.0" encoding="UTF-8"?>
<svg width="402px" height="74px" viewBox="0 0 402 74" version="1.1" xmlns="http://www.w3.org/2000/svg" xmlns:xlink="http://www.w3.org/1999/xlink">
    <title>Group 39</title>
    <defs>
        <filter id="filter-1">
            <feColorMatrix in="SourceGraphic" type="matrix" values="0 0 0 0 1.000000 0 0 0 0 1.000000 0 0 0 0 1.000000 0 0 0 1.000000 0"></feColorMatrix>
        </filter>
        <filter id="filter-2">
            <feColorMatrix in="SourceGraphic" type="matrix" values="0 0 0 0 1.000000 0 0 0 0 1.000000 0 0 0 0 1.000000 0 0 0 1.000000 0"></feColorMatrix>
        </filter>
        <polygon id="path-3" points="2.48962656e-05 0.0179310345 59.8147718 0.0179310345 59.8147718 64.9999751 2.48962656e-05 64.9999751"></polygon>
    </defs>
    <g id="Welcome" stroke="none" stroke-width="1" fill="none" fill-rule="evenodd">
        <g id="Step-2" transform="translate(-534.000000, -75.000000)">
            <g id="Logo-and-Github" transform="translate(412.000000, -178.000000)">
                <g id="Group-39" transform="translate(122.000000, 253.000000)">
                    <g id="Group">
                        <g filter="url(#filter-1)" id="logo-copy">
                            <g transform="translate(247.000000, 54.000000)">
                                <path d="M16.3328985,10 C16.3328985,9.3776908 16.1000326,8.83300718 15.6329963,8.36660144 C15.1666123,7.90019569 14.6219541,7.66666667 14.0003261,7.66666667 C13.3780459,7.66666667 12.8333877,7.90019569 12.3670037,8.36660144 C11.8999674,8.83300718 11.6671015,9.3776908 11.6671015,10 C11.6671015,10.6223092 11.8999674,11.1663405 12.3670037,11.6333986 C12.8333877,12.0998043 13.3780459,12.3333333 14.0003261,12.3333333 C14.6219541,12.3333333 15.1666123,12.0998043 15.6329963,11.6333986 C16.1000326,11.1663405 16.3328985,10.6223092 16.3328985,10 L16.3328985,10 Z M20.9993477,8.98891063 L20.9993477,11.0110894 C20.9993477,11.0893673 20.9993477,11.1663405 20.9217258,11.2446184 L20.7664819,11.3998695 L19.0555374,11.6333986 C18.9772632,11.9445532 18.8220193,12.2557078 18.6661231,12.4109589 C18.8996412,12.7221135 19.2107813,13.1108937 19.6771654,13.6555773 C19.7554396,13.7338552 19.7554396,13.8108284 19.7554396,13.8891063 C19.7554396,13.9667319 19.7554396,14.0443575 19.6771654,14.121983 C19.5219214,14.3555121 19.2107813,14.6666667 18.8220193,15.1330724 C18.4332572,15.6001305 18.1221171,15.7553816 17.9662209,15.7553816 C17.888599,15.7553816 17.810977,15.7553816 17.7333551,15.6771037 L16.4111727,14.6660144 C16.1776546,14.8225701 15.8665145,14.9001957 15.5553744,14.9778213 C15.4771001,15.8330072 15.4001305,16.3776908 15.3218562,16.6888454 C15.3218562,16.9217221 15.1666123,17 15.0113684,17 L12.9892839,17 C12.9110096,17 12.8333877,17 12.7557657,16.9217221 C12.6774915,16.8440965 12.6774915,16.766471 12.6774915,16.6888454 L12.4446256,14.9778213 C12.1334855,14.8995434 11.8999674,14.7442922 11.5888273,14.6666667 L10.2666449,15.677756 C10.189023,15.7560339 10.111401,15.7560339 10.0337791,15.7560339 C9.95550482,15.7560339 9.87788287,15.7560339 9.80026091,15.677756 C9.0227368,14.9778213 8.55570051,14.5107632 8.32283465,14.121983 C8.24456041,14.0443575 8.24456041,13.9667319 8.24456041,13.8891063 C8.24456041,13.8108284 8.24456041,13.7332029 8.32283465,13.6555773 C8.4004566,13.4996738 8.55570051,13.3444227 8.78921866,13.0332681 C9.0227368,12.7221135 9.17798071,12.5668624 9.25560267,12.4109589 C9.10035876,12.0998043 8.94446256,11.7886497 8.86684061,11.4781474 L7.23351815,11.2446184 C7.15589619,11.2446184 7.07827424,11.1663405 7.07827424,11.1663405 C7.07827424,11.1663405 7,11.0887149 7,11.0110894 L7,8.98891063 C7,8.91063275 7,8.83300718 7.07827424,8.7553816 L7.23351815,8.60013046 L8.94446256,8.36660144 C9.0227368,8.05544684 9.17798071,7.82191781 9.3338769,7.51141553 C9.10035876,7.20026093 8.78921866,6.73320287 8.32283465,6.26679713 C8.24456041,6.18851924 8.24456041,6.11089367 8.24456041,6.0332681 C8.24456041,5.95564253 8.24456041,5.87801696 8.32283465,5.80039139 C8.47807855,5.56686236 8.78921866,5.25570776 9.25560267,4.78930202 C9.72263896,4.32224397 9.95550482,4.16699282 10.111401,4.16699282 C10.1896753,4.16699282 10.2666449,4.16699282 10.3449192,4.2446184 L11.5888273,5.25570776 C11.8223454,5.09980431 12.1334855,5.02217873 12.4446256,4.94455316 C12.5228999,4.08871494 12.5998695,3.54468363 12.6781438,3.23352903 C12.7557657,3.07762557 12.8333877,3 12.9892839,3 L15.0113684,3 C15.0889904,3 15.1666123,3 15.2442343,3.07827789 C15.3225085,3.15590346 15.3225085,3.23352903 15.3225085,3.3111546 L15.5553744,5.02217873 C15.8665145,5.10045662 16.1000326,5.25570776 16.4111727,5.33333333 L17.7333551,4.32224397 C17.810977,4.24396608 17.888599,4.24396608 17.9662209,4.24396608 C18.0444952,4.24396608 18.1221171,4.24396608 18.1997391,4.32224397 C18.9772632,5.02217873 19.5219214,5.56686236 19.6771654,5.87801696 C19.7554396,5.95564253 19.7554396,5.95564253 19.7554396,6.11089367 C19.7554396,6.18917156 19.7554396,6.26679713 19.6771654,6.3444227 C19.5995434,6.50032616 19.4442995,6.6555773 19.2107813,6.9667319 C18.9772632,7.2778865 18.8220193,7.43313764 18.7443973,7.5890411 C18.8996412,7.90019569 19.0555374,8.21135029 19.1331594,8.44422701 L20.7664819,8.67775603 C20.8441038,8.67775603 20.9217258,8.75603392 20.9217258,8.75603392 C20.9217258,8.75603392 21,8.91128506 21,8.98891063 L20.9993477,8.98891063 Z" id="Shape" fill="#45AAF2" fill-rule="nonzero"></path>
                                <path d="M0,10.5387097 L0,9.38451613 C0.365707247,9.39397794 0.712132018,9.22102704 0.923975472,8.92322581 C1.15529241,8.61548387 1.23282881,8.23096774 1.23282881,7.76903226 L1.23282881,3.07741935 C1.23282881,2.15483871 1.54103601,1.38516129 2.07991402,0.847096774 C2.69632842,0.230967742 3.31274283,0 4.0835839,0 L5.47019325,0 L5.47019325,1.30774194 L4.0835839,1.30774194 C3.69848644,1.30774194 3.31338897,1.46129032 3.00518176,1.84645161 C2.69697456,2.23096774 2.54319403,2.61548387 2.54319403,3.15354839 L2.54319403,8 C2.54319403,9.07741935 2.15745042,9.69225806 1.46414575,10 C2.15745042,10.3077419 2.54319403,11 2.54319403,12 L2.54319403,16.9225806 C2.54319403,17.4612903 2.69697456,17.9225806 3.00518176,18.2309677 C3.31338897,18.6154839 3.69848644,18.7690323 4.08423004,18.7690323 L5.47019325,18.7690323 L5.47019325,20 L4.0835839,20 C3.31338897,20 2.62008429,19.6922581 2.08056015,19.1541935 C1.46414575,18.6154839 1.23347495,17.8464516 1.23347495,16.9232258 L1.23347495,12.1535484 C1.23347495,11.6922581 1.15593855,11.3077419 0.925267746,11 C0.713166822,10.7018131 0.366159857,10.5288135 0,10.5387097 Z M22.3414685,18.6922581 L23.7280778,18.6922581 C24.1131753,18.6922581 24.4982727,18.5387097 24.8071261,18.1541935 C25.1146872,17.7690323 25.2691138,17.3845161 25.2691138,16.8464516 L25.2691138,12 C25.2691138,10.9225806 25.6542113,10.2309677 26.347516,10 C25.6542113,9.69225806 25.2684677,9 25.2684677,8 L25.2684677,3.15354839 C25.2684677,2.61548387 25.1146872,2.15354839 24.8064799,1.84645161 C24.4982727,1.46129032 24.1131753,1.30774194 23.7280778,1.30774194 L22.3414685,1.30774194 L22.3414685,0 L23.7280778,0 C24.4982727,0 25.1915774,0.307741935 25.7311016,0.846451613 C26.2706257,1.38451613 26.5788329,2.15354839 26.5788329,3.07677419 L26.5788329,7.76903226 C26.5788329,8.23096774 26.6557232,8.61548387 26.8870401,8.92322581 C27.1177109,9.23096774 27.4259181,9.38451613 27.7341253,9.38451613 L27.7341253,10.5387097 C27.4259181,10.5387097 27.1946012,10.6922581 26.9639304,11 C26.7326134,11.3077419 26.6557232,11.6922581 26.6557232,12.1535484 L26.6557232,16.9232258 C26.6557232,17.8458065 26.347516,18.5387097 25.8079918,19.1535484 C25.1915774,19.6922581 24.4982727,20 23.7280778,20 L22.3414685,20 L22.3414685,18.6922581 L22.3414685,18.6922581 Z M33.8969771,13.6922581 L34.6678182,12.6922581 C35.0529156,13.1541935 35.5149034,13.4612903 36.0544275,13.7696774 C36.5939517,14.0767742 37.2097199,14.1541935 37.9030246,14.1541935 C38.3656585,14.1541935 38.7507559,14.0767742 39.0589631,14 C39.3671703,13.9225806 39.6753775,13.7690323 39.8291581,13.5387097 C40.060475,13.4612903 40.2142555,13.2309677 40.291792,13.0767742 C40.3686822,12.8464516 40.4455725,12.6922581 40.4455725,12.4612903 C40.4455725,12.1535484 40.3680361,11.9232258 40.2142555,11.6922581 C40.0752497,11.4762997 39.8914957,11.292603 39.6753775,11.1535484 C39.4440606,11 39.1358534,10.9232258 38.8276462,10.7690323 C38.519439,10.6154839 38.2112318,10.5387097 37.8261343,10.4612903 C37.4410369,10.3845161 37.1328297,10.3077419 36.8246225,10.1541935 C36.4787009,10.0596453 36.1431762,9.93060924 35.8231106,9.76903226 C35.5149034,9.61548387 35.2066962,9.46129032 34.9760254,9.23096774 C34.7447084,9 34.5133915,8.76903226 34.4365012,8.46129032 C34.2827207,8.15419355 34.2051843,7.76903226 34.2051843,7.38451613 C34.2051843,6.53870968 34.5133915,5.84645161 35.2066962,5.30709677 C35.9000008,4.76903226 36.7477322,4.53870968 37.7492441,4.53870968 C39.2902801,4.53870968 40.5224628,5 41.4470844,6 L40.6768894,6.92258065 C39.9060483,6.07741935 38.9045365,5.69225806 37.6723538,5.69225806 C37.0559394,5.69225806 36.5164153,5.84645161 36.1313178,6.15354839 C35.7462203,6.46129032 35.5149034,6.84580645 35.5149034,7.30774194 C35.5149034,7.53870968 35.5924398,7.76903226 35.7462203,8 C35.9000008,8.23096774 36.0544275,8.30774194 36.2857445,8.46129032 C36.5164153,8.61548387 36.8246225,8.69225806 37.1328297,8.76903226 C37.4410369,8.84645161 37.7492441,8.92322581 38.1343415,9.07677419 C38.519439,9.23096774 38.8276462,9.38451613 39.1358534,9.46129032 C39.4817763,9.55583446 39.8173014,9.68487064 40.1373653,9.84645161 C40.4455725,10 40.7537797,10.1535484 40.9850966,10.3845161 C41.2157674,10.6154839 41.4470844,10.8458065 41.5239746,11.1535484 C41.601511,11.4612903 41.7552916,11.8458065 41.7552916,12.2309677 C41.7552916,12.5387097 41.6777552,12.8464516 41.6008649,13.1535484 C41.5239746,13.4612903 41.3701941,13.6922581 41.2157674,14 L40.5224628,14.6922581 C40.2089389,14.9364555 39.8374008,15.0953823 39.4440606,15.1535484 C38.9045365,15.3077419 38.4425487,15.3845161 37.9030246,15.3845161 C36.208208,15.3845161 34.898489,14.8464516 33.8969771,13.6922581 L33.8969771,13.6922581 Z M46.1464365,15.2309677 L46.1464365,4.84645161 L47.4561556,4.84645161 L47.4561556,9.23096774 L53.5427633,9.23096774 L53.5427633,4.76903226 L54.8518362,4.76903226 L54.8518362,15.1535484 L53.5421171,15.1535484 L53.5421171,10.3845161 L47.4561556,10.3845161 L47.4561556,15.1535484 L46.1464365,15.1535484 L46.1464365,15.2309677 L46.1464365,15.2309677 Z M59.7056151,15.2309677 L59.7056151,4.84645161 L61.0153341,4.84645161 L61.0153341,15.2309677 L59.7056151,15.2309677 L59.7056151,15.2309677 Z M65.9453571,15.2309677 L65.9453571,4.84645161 L70.1058313,4.84645161 C71.1073432,4.84645161 71.8775381,5.15354839 72.4939525,5.76903226 C73.1103669,6.38451613 73.3416875,7.15354839 73.3416875,8 C73.3428921,8.8223355 73.041163,9.61639371 72.4939525,10.2309677 C71.8775381,10.7690323 71.1073432,11.0767742 70.1058313,11.0767742 L67.1781859,11.0767742 L67.1781859,15.2309677 L65.9453571,15.2309677 L65.9453571,15.2309677 Z M67.2550762,9.92322581 L69.9514046,9.92322581 C70.567819,9.92322581 71.0304529,9.76903226 71.4924406,9.38451613 C71.9544284,9 72.108855,8.53870968 72.108855,7.92322581 C72.108855,7.30774194 71.8775381,6.84580645 71.4924406,6.46129032 C71.1073432,6.07677419 70.567819,5.92322581 69.9514046,5.92322581 L67.2550762,5.92322581 L67.2550762,9.92322581 Z M77.2701949,15.2309677 L77.2701949,4.84645161 L84.8971925,4.84645161 L84.8971925,7.15419355 L79.9665234,7.15419355 L79.9665234,8.76903226 L84.8203022,8.76903226 L84.8203022,11.0767742 L79.9665234,11.0767742 L79.9665234,12.8458065 L84.8971925,12.8458065 L84.8971925,15.1535484 L77.2701949,15.1535484 L77.2701949,15.2309677 L77.2701949,15.2309677 Z M88.9801302,15.2309677 L88.9801302,4.84645161 L91.6771048,4.84645161 L95.9138231,10.5387097 L95.9138231,4.84645161 L98.6101515,4.84645161 L98.6101515,15.2309677 L95.9907134,15.2309677 L91.5995684,9.23096774 L91.5995684,15.2309677 L88.9801302,15.2309677 L88.9801302,15.2309677 Z M102.462418,10 C102.462418,9.23096774 102.616199,8.46129032 102.924406,7.76903226 C103.232613,7.07677419 103.617711,6.53870968 104.157235,6.07677419 C104.696759,5.61548387 105.235637,5.23096774 105.928942,5 C106.622247,4.76903226 107.315551,4.61548387 108.163283,4.61548387 C108.702807,4.61548387 109.241685,4.69290323 109.704319,4.84645161 C110.166306,5 110.628294,5.15354839 110.936501,5.38451613 C111.321599,5.61548387 111.629806,5.92322581 111.861123,6.15354839 L112.554428,7.07677419 L110.320087,8.23096774 C110.094096,7.85104625 109.776449,7.53365695 109.396111,7.30774194 C109.010368,7.07677419 108.54838,6.92322581 108.086392,6.92322581 C107.238661,6.92322581 106.545356,7.23096774 106.005832,7.76903226 C105.466954,8.30774194 105.158747,9.07677419 105.158747,9.92322581 C105.158747,10.7690323 105.466954,11.4612903 106.005832,12.0767742 C106.545356,12.6154839 107.238661,12.9232258 108.086392,12.9232258 C108.47149,12.9232258 108.779697,12.8458065 109.164794,12.7690323 C109.549892,12.6154839 109.781209,12.4612903 110.01188,12.3077419 L110.01188,11.5387097 L107.701295,11.5387097 L107.701295,9.23096774 L112.708854,9.23096774 L112.708854,13.3845161 C111.476025,14.7690323 109.934989,15.3845161 108.086392,15.3845161 C107.315551,15.3845161 106.545356,15.2309677 105.852052,15 C105.186588,14.7811872 104.580409,14.4125546 104.080345,13.9225806 C103.540821,13.4612903 103.155723,12.9225806 102.847516,12.2309677 C102.616199,11.5387097 102.462418,10.7690323 102.462418,10 L102.462418,10 Z M116.714902,15.2309677 L116.714902,4.84645161 L119.41123,4.84645161 L119.41123,15.2309677 L116.714902,15.2309677 L116.714902,15.2309677 Z M123.725485,15.2309677 L123.725485,4.84645161 L126.498704,4.84645161 L130.736068,10.5387097 L130.736068,4.84645161 L133.432396,4.84645161 L133.432396,15.2309677 L130.812958,15.2309677 L126.421813,9.23096774 L126.421813,15.2309677 L123.725485,15.2309677 L123.725485,15.2309677 Z M137.746651,15.2309677 L137.746651,4.84645161 L145.373002,4.84645161 L145.373002,7.15419355 L140.442979,7.15419355 L140.442979,8.76903226 L145.296112,8.76903226 L145.296112,11.0767742 L140.442979,11.0767742 L140.442979,12.8458065 L145.373002,12.8458065 L145.373002,15.1535484 L137.746651,15.1535484 L137.746651,15.2309677 L137.746651,15.2309677 Z M149.456586,6.38451613 C149.456586,5.92322581 149.610367,5.46193548 149.995464,5.15354839 C150.380562,4.84645161 150.766305,4.61548387 151.228293,4.61548387 C151.5365,4.61548387 151.844708,4.69290323 152.152915,4.84645161 C152.461122,5 152.614903,5.23096774 152.769329,5.46129032 C152.92311,5.69225806 153,6 153,6.38451613 C153,6.84580645 152.846219,7.30709677 152.461122,7.61548387 C152.075378,7.92322581 151.690281,8.15419355 151.228293,8.15419355 C150.766305,8.15419355 150.303672,8 149.995464,7.61548387 C149.687257,7.23096774 149.456586,6.84580645 149.456586,6.38451613 L149.456586,6.38451613 Z M149.764794,6.38451613 C149.764794,6.76903226 149.918574,7.15354839 150.226781,7.46193548 C150.534989,7.76903226 150.920086,7.92322581 151.305183,7.92322581 C151.690281,7.92322581 152.075378,7.76903226 152.383586,7.46129032 C152.675895,7.17864399 152.842534,6.79079515 152.846219,6.38451613 C152.846219,5.92322581 152.691793,5.61548387 152.383586,5.30709677 C152.100171,5.01588464 151.711843,4.85000822 151.305183,4.84645161 C150.843196,4.84645161 150.534989,5 150.226781,5.30774194 C149.918574,5.53870968 149.764794,5.92322581 149.764794,6.38516129 L149.764794,6.38451613 Z M150.611879,7.38451613 L150.611879,5.38451613 L151.45961,5.38451613 C151.613391,5.38451613 151.767817,5.46193548 151.921598,5.53870968 C152.075378,5.61548387 152.075378,5.76903226 152.075378,6 C152.075378,6.23096774 151.998488,6.38451613 151.921598,6.46129032 C151.844708,6.53870968 151.690281,6.61548387 151.613391,6.61548387 L152.152915,7.46129032 L151.767817,7.46129032 L151.228293,6.61548387 L150.843196,6.61548387 L150.843196,7.46129032 L150.611879,7.46129032 L150.611879,7.38451613 L150.611879,7.38451613 Z M150.843196,6.38451613 L151.382074,6.38451613 C151.45961,6.38451613 151.5365,6.38451613 151.613391,6.30709677 C151.767817,6.15354839 151.767817,6.07677419 151.767817,6 C151.767817,5.92258065 151.767817,5.76903226 151.690281,5.69225806 C151.613391,5.61483871 151.5365,5.61483871 151.45961,5.61483871 L150.920086,5.61483871 L150.920086,6.38451613 L150.843196,6.38451613 Z" id="Shape" fill="#162948" fill-rule="nonzero"></path>
                            </g>
                        </g>
                        <g filter="url(#filter-2)" id="Group-6">
                            <g>
                                <g id="Group-3">
                                    <mask id="mask-4" fill="white">
                                        <use xlink:href="#path-3"></use>
                                    </mask>
                                    <g id="Clip-2"></g>
                                    <path d="M29.599444,14.3198985 C33.0351286,15.1168333 41.1015187,19.5746877 41.5247552,23.0612778 C41.5247552,23.0612778 25.3421826,24.6800517 33.9811867,49.0363736 C35.485917,53.5988257 34.7691535,51.8532893 36.445917,55.5453391 C34.3538838,56.0800326 32.1632614,56.3649368 29.9074108,56.3649368 C28.3337178,56.3649368 26.792888,56.2237299 25.2941328,55.9585 C24.2151286,52.4420249 23.1122241,48.9305307 22.3048382,45.3256456 C19.8650041,34.118749 25.9147967,31.5038065 25.9147967,31.5038065 C13.5911452,26.6723889 20.6118921,11.6053391 29.599444,14.3198985 M29.9074108,0.0179061303 C13.4163734,0.0179061303 2.48962656e-05,13.4385383 2.48962656e-05,29.934592 C2.48962656e-05,37.3548027 2.71570954,44.15191 7.20351037,49.3860287 L7.81421577,44.4136533 C5.079361,40.25191 3.48550207,35.2762969 3.48550207,29.934592 C3.48550207,15.3608946 15.3383651,3.50449617 29.9074108,3.50449617 C44.4764564,3.50449617 56.3293195,15.3608946 56.3293195,29.934592 C56.3293195,41.3504349 49.0563734,51.0981935 38.9024315,54.7870057 C37.1893195,51.0214885 37.8002739,52.6803582 36.346332,47.9654923 C28.8276598,23.7336916 43.665834,24.9041897 50.2135519,25.5516992 C50.8359585,25.6015077 52.0807718,24.1819674 50.1139668,23.3850326 C44.7363734,21.2432701 40.0977012,18.3738065 35.4500664,14.6685575 C28.6782822,8.16855747 16.3048382,11.0076379 14.1139668,21.2183659 C13.3670788,24.7049559 12.7944647,28.2164502 12.2716432,31.7279444 C11.5247552,36.9578295 10.8774523,42.1877146 10.3297344,47.4175996 C9.73222407,53.27009 9.10981743,59.1225805 8.61189212,64.9999751 L26.0870788,59.6074655 C27.3381162,59.7678487 28.6133029,59.8515268 29.9074108,59.8515268 C46.3984481,59.8515268 59.8147967,46.4308946 59.8147967,29.934592 C59.8147967,13.4385383 46.3984481,0.0179061303 29.9074108,0.0179061303" id="Fill-1" fill="#000000" mask="url(#mask-4)"></path>
                                </g>
                                <path d="M31.2886986,18.6862745 C32.05871,18.6862745 32.5572001,19.6004902 31.8988169,20.3139706 C31.1137072,20.7963235 30.3729023,20.2634804 30.3729023,19.5931373 C30.3729023,19.0784314 30.7936736,18.6862745 31.2886986,18.6862745 M30.4998762,23 C31.8859462,23 33,21.872549 33,20.5 C33,19.127451 31.8859462,18 30.4998762,18 C29.1138062,18 28,19.127451 28,20.5 C28,21.872549 29.1138062,23 30.4998762,23" id="Fill-4" fill="#000000"></path>
                            </g>
                        </g>
                        <text id="shippenguin" font-family="TTCommons-Medium, TT Commons" font-size="43" font-weight="400" letter-spacing="6.31611674" fill="#FFFFFF">
                            <tspan x="78" y="42">SHIP</tspan>
                            <tspan x="185.569154" y="42" font-family="TTCommons-Bold, TT Commons" font-weight="bold">PENGUIN</tspan>
                        </text>
                    </g>
                    <text id="powered-by" font-family="TTCommons-DemiBold, TT Commons" font-size="14" font-weight="400" letter-spacing="2.0564101" fill="#4B8C8F" fill-opacity="0.573645105">
                        <tspan x="135" y="69">POWERED BY</tspan>
                    </text>
                </g>
            </g>
        </g>
    </g>
</svg>